<svg xmlns="http://www.w3.org/2000/svg" xmlns:xlink="http://www.w3.org/1999/xlink" contentStyleType="text/css" height="1561px" preserveAspectRatio="none" style="width:2110px;height:1561px;background:#FFFFFF;" version="1.1" viewBox="0 0 2110 1561" width="2110px" zoomAndPan="magnify"><defs/><g><rect fill="#FFFFFF" height="29.1328" style="stroke:#181818;stroke-width:1.0;" width="10" x="1039.1689" y="382.625"/><rect fill="#FFFFFF" height="29.1328" style="stroke:#181818;stroke-width:1.0;" width="10" x="1039.1689" y="745.2188"/><rect fill="#FFFFFF" height="29.1328" style="stroke:#181818;stroke-width:1.0;" width="10" x="1039.1689" y="1107.8125"/><rect fill="#FFFFFF" height="129.5313" style="stroke:#181818;stroke-width:1.0;" width="10" x="1217.561" y="141.5625"/><rect fill="#FFFFFF" height="58.2656" style="stroke:#181818;stroke-width:1.0;" width="10" x="1217.561" y="628.6875"/><rect fill="#FFFFFF" height="58.2656" style="stroke:#181818;stroke-width:1.0;" width="10" x="1217.561" y="991.2813"/><rect fill="#FFFFFF" height="58.2656" style="stroke:#181818;stroke-width:1.0;" width="10" x="1217.561" y="1353.875"/><rect fill="#FFFFFF" height="1031.1875" style="stroke:#181818;stroke-width:1.0;" width="10" x="1395.9531" y="440.8906"/><rect fill="#FFFFFF" height="668.5938" style="stroke:#181818;stroke-width:1.0;" width="10" x="1400.9531" y="803.4844"/><rect fill="#FFFFFF" height="306" style="stroke:#181818;stroke-width:1.0;" width="10" x="1405.9531" y="1166.0781"/><rect fill="#FFFFFF" height="129.5313" style="stroke:#181818;stroke-width:1.0;" width="10" x="1579.4512" y="470.0234"/><rect fill="#FFFFFF" height="129.5313" style="stroke:#181818;stroke-width:1.0;" width="10" x="1579.4512" y="832.6172"/><rect fill="#FFFFFF" height="129.5313" style="stroke:#181818;stroke-width:1.0;" width="10" x="1579.4512" y="1195.2109"/><rect fill="#FFFFFF" height="71.2656" style="stroke:#181818;stroke-width:1.0;" width="10" x="1906.7021" y="170.6953"/><rect fill="#FFFFFF" height="71.2656" style="stroke:#181818;stroke-width:1.0;" width="10" x="1906.7021" y="499.1563"/><rect fill="#FFFFFF" height="71.2656" style="stroke:#181818;stroke-width:1.0;" width="10" x="1906.7021" y="861.75"/><rect fill="#FFFFFF" height="71.2656" style="stroke:#181818;stroke-width:1.0;" width="10" x="1906.7021" y="1224.3438"/><rect fill="none" height="1148.8516" style="stroke:#000000;stroke-width:1.5;" width="2039.3657" x="10" y="315.2266"/><line style="stroke:#181818;stroke-width:0.5;stroke-dasharray:5.0,5.0;" x1="38" x2="38" y1="81.2969" y2="1481.0781"/><line style="stroke:#181818;stroke-width:0.5;stroke-dasharray:5.0,5.0;" x1="229.8994" x2="229.8994" y1="81.2969" y2="1481.0781"/><line style="stroke:#181818;stroke-width:0.5;stroke-dasharray:5.0,5.0;" x1="479.04" x2="479.04" y1="81.2969" y2="1481.0781"/><line style="stroke:#181818;stroke-width:0.5;stroke-dasharray:5.0,5.0;" x1="795.7144" x2="795.7144" y1="81.2969" y2="1481.0781"/><line style="stroke:#181818;stroke-width:0.5;stroke-dasharray:5.0,5.0;" x1="1043.7373" x2="1043.7373" y1="81.2969" y2="1481.0781"/><line style="stroke:#181818;stroke-width:0.5;stroke-dasharray:5.0,5.0;" x1="1221.6899" x2="1221.6899" y1="81.2969" y2="1481.0781"/><line style="stroke:#181818;stroke-width:0.5;stroke-dasharray:5.0,5.0;" x1="1400.5947" x2="1400.5947" y1="81.2969" y2="1481.0781"/><line style="stroke:#181818;stroke-width:0.5;stroke-dasharray:5.0,5.0;" x1="1583.6235" x2="1583.6235" y1="81.2969" y2="1481.0781"/><line style="stroke:#181818;stroke-width:0.5;stroke-dasharray:5.0,5.0;" x1="1789.6357" x2="1789.6357" y1="81.2969" y2="1481.0781"/><line style="stroke:#181818;stroke-width:0.5;stroke-dasharray:5.0,5.0;" x1="1910.8691" x2="1910.8691" y1="81.2969" y2="1481.0781"/><text fill="#000000" font-family="sans-serif" font-size="14" lengthAdjust="spacing" textLength="31.9102" x="20" y="77.9951">User</text><ellipse cx="38.9551" cy="13.5" fill="#E2E2F0" rx="8" ry="8" style="stroke:#181818;stroke-width:0.5;"/><path d="M38.9551,21.5 L38.9551,48.5 M25.9551,29.5 L51.9551,29.5 M38.9551,48.5 L25.9551,63.5 M38.9551,48.5 L51.9551,63.5 " fill="none" style="stroke:#181818;stroke-width:0.5;"/><text fill="#000000" font-family="sans-serif" font-size="14" lengthAdjust="spacing" textLength="31.9102" x="20" y="1493.0732">User</text><ellipse cx="38.9551" cy="1504.875" fill="#E2E2F0" rx="8" ry="8" style="stroke:#181818;stroke-width:0.5;"/><path d="M38.9551,1512.875 L38.9551,1539.875 M25.9551,1520.875 L51.9551,1520.875 M38.9551,1539.875 L25.9551,1554.875 M38.9551,1539.875 L51.9551,1554.875 " fill="none" style="stroke:#181818;stroke-width:0.5;"/><rect fill="#E2E2F0" height="30.2969" rx="2.5" ry="2.5" style="stroke:#181818;stroke-width:0.5;" width="101.623" x="179.8994" y="50"/><text fill="#000000" font-family="sans-serif" font-size="14" lengthAdjust="spacing" textLength="87.623" x="186.8994" y="69.9951">LoginWidget</text><rect fill="#E2E2F0" height="30.2969" rx="2.5" ry="2.5" style="stroke:#181818;stroke-width:0.5;" width="101.623" x="179.8994" y="1480.0781"/><text fill="#000000" font-family="sans-serif" font-size="14" lengthAdjust="spacing" textLength="87.623" x="186.8994" y="1500.0732">LoginWidget</text><rect fill="#E2E2F0" height="30.2969" rx="2.5" ry="2.5" style="stroke:#181818;stroke-width:0.5;" width="95.5186" x="432.04" y="50"/><text fill="#000000" font-family="sans-serif" font-size="14" lengthAdjust="spacing" textLength="81.5186" x="439.04" y="69.9951">UserWidget</text><rect fill="#E2E2F0" height="30.2969" rx="2.5" ry="2.5" style="stroke:#181818;stroke-width:0.5;" width="95.5186" x="432.04" y="1480.0781"/><text fill="#000000" font-family="sans-serif" font-size="14" lengthAdjust="spacing" textLength="81.5186" x="439.04" y="1500.0732">UserWidget</text><rect fill="#E2E2F0" height="30.2969" rx="2.5" ry="2.5" style="stroke:#181818;stroke-width:0.5;" width="108.4727" x="741.7144" y="50"/><text fill="#000000" font-family="sans-serif" font-size="14" lengthAdjust="spacing" textLength="94.4727" x="748.7144" y="69.9951">AdminWidget</text><rect fill="#E2E2F0" height="30.2969" rx="2.5" ry="2.5" style="stroke:#181818;stroke-width:0.5;" width="108.4727" x="741.7144" y="1480.0781"/><text fill="#000000" font-family="sans-serif" font-size="14" lengthAdjust="spacing" textLength="94.4727" x="748.7144" y="1500.0732">AdminWidget</text><rect fill="#E2E2F0" height="30.2969" rx="2.5" ry="2.5" style="stroke:#181818;stroke-width:0.5;" width="132.8633" x="977.7373" y="50"/><text fill="#000000" font-family="sans-serif" font-size="14" lengthAdjust="spacing" textLength="118.8633" x="984.7373" y="69.9951">RequestManager</text><rect fill="#E2E2F0" height="30.2969" rx="2.5" ry="2.5" style="stroke:#181818;stroke-width:0.5;" width="132.8633" x="977.7373" y="1480.0781"/><text fill="#000000" font-family="sans-serif" font-size="14" lengthAdjust="spacing" textLength="118.8633" x="984.7373" y="1500.0732">RequestManager</text><rect fill="#E2E2F0" height="30.2969" rx="2.5" ry="2.5" style="stroke:#181818;stroke-width:0.5;" width="89.7422" x="1177.6899" y="50"/><text fill="#000000" font-family="sans-serif" font-size="14" lengthAdjust="spacing" textLength="75.7422" x="1184.6899" y="69.9951">UIManager</text><rect fill="#E2E2F0" height="30.2969" rx="2.5" ry="2.5" style="stroke:#181818;stroke-width:0.5;" width="89.7422" x="1177.6899" y="1480.0781"/><text fill="#000000" font-family="sans-serif" font-size="14" lengthAdjust="spacing" textLength="75.7422" x="1184.6899" y="1500.0732">UIManager</text><rect fill="#E2E2F0" height="30.2969" rx="2.5" ry="2.5" style="stroke:#181818;stroke-width:0.5;" width="102.7168" x="1349.5947" y="50"/><text fill="#000000" font-family="sans-serif" font-size="14" lengthAdjust="spacing" textLength="88.7168" x="1356.5947" y="69.9951">AppManager</text><rect fill="#E2E2F0" height="30.2969" rx="2.5" ry="2.5" style="stroke:#181818;stroke-width:0.5;" width="102.7168" x="1349.5947" y="1480.0781"/><text fill="#000000" font-family="sans-serif" font-size="14" lengthAdjust="spacing" textLength="88.7168" x="1356.5947" y="1500.0732">AppManager</text><rect fill="#E2E2F0" height="30.2969" rx="2.5" ry="2.5" style="stroke:#181818;stroke-width:0.5;" width="109.6553" x="1529.6235" y="50"/><text fill="#000000" font-family="sans-serif" font-size="14" lengthAdjust="spacing" textLength="95.6553" x="1536.6235" y="69.9951">ClientHandler</text><rect fill="#E2E2F0" height="30.2969" rx="2.5" ry="2.5" style="stroke:#181818;stroke-width:0.5;" width="109.6553" x="1529.6235" y="1480.0781"/><text fill="#000000" font-family="sans-serif" font-size="14" lengthAdjust="spacing" textLength="95.6553" x="1536.6235" y="1500.0732">ClientHandler</text><rect fill="#E2E2F0" height="30.2969" rx="2.5" ry="2.5" style="stroke:#181818;stroke-width:0.5;" width="143.2334" x="1718.6357" y="50"/><text fill="#000000" font-family="sans-serif" font-size="14" lengthAdjust="spacing" textLength="129.2334" x="1725.6357" y="69.9951">ResponseManager</text><rect fill="#E2E2F0" height="30.2969" rx="2.5" ry="2.5" style="stroke:#181818;stroke-width:0.5;" width="143.2334" x="1718.6357" y="1480.0781"/><text fill="#000000" font-family="sans-serif" font-size="14" lengthAdjust="spacing" textLength="129.2334" x="1725.6357" y="1500.0732">ResponseManager</text><rect fill="#E2E2F0" height="30.2969" rx="2.5" ry="2.5" style="stroke:#181818;stroke-width:0.5;" width="79.666" x="1871.8691" y="50"/><text fill="#000000" font-family="sans-serif" font-size="14" lengthAdjust="spacing" textLength="65.666" x="1878.8691" y="69.9951">TcpClient</text><rect fill="#E2E2F0" height="30.2969" rx="2.5" ry="2.5" style="stroke:#181818;stroke-width:0.5;" width="79.666" x="1871.8691" y="1480.0781"/><text fill="#000000" font-family="sans-serif" font-size="14" lengthAdjust="spacing" textLength="65.666" x="1878.8691" y="1500.0732">TcpClient</text><rect fill="#FFFFFF" height="29.1328" style="stroke:#181818;stroke-width:1.0;" width="10" x="1039.1689" y="382.625"/><rect fill="#FFFFFF" height="29.1328" style="stroke:#181818;stroke-width:1.0;" width="10" x="1039.1689" y="745.2188"/><rect fill="#FFFFFF" height="29.1328" style="stroke:#181818;stroke-width:1.0;" width="10" x="1039.1689" y="1107.8125"/><rect fill="#FFFFFF" height="129.5313" style="stroke:#181818;stroke-width:1.0;" width="10" x="1217.561" y="141.5625"/><rect fill="#FFFFFF" height="58.2656" style="stroke:#181818;stroke-width:1.0;" width="10" x="1217.561" y="628.6875"/><rect fill="#FFFFFF" height="58.2656" style="stroke:#181818;stroke-width:1.0;" width="10" x="1217.561" y="991.2813"/><rect fill="#FFFFFF" height="58.2656" style="stroke:#181818;stroke-width:1.0;" width="10" x="1217.561" y="1353.875"/><rect fill="#FFFFFF" height="1031.1875" style="stroke:#181818;stroke-width:1.0;" width="10" x="1395.9531" y="440.8906"/><rect fill="#FFFFFF" height="668.5938" style="stroke:#181818;stroke-width:1.0;" width="10" x="1400.9531" y="803.4844"/><rect fill="#FFFFFF" height="306" style="stroke:#181818;stroke-width:1.0;" width="10" x="1405.9531" y="1166.0781"/><rect fill="#FFFFFF" height="129.5313" style="stroke:#181818;stroke-width:1.0;" width="10" x="1579.4512" y="470.0234"/><rect fill="#FFFFFF" height="129.5313" style="stroke:#181818;stroke-width:1.0;" width="10" x="1579.4512" y="832.6172"/><rect fill="#FFFFFF" height="129.5313" style="stroke:#181818;stroke-width:1.0;" width="10" x="1579.4512" y="1195.2109"/><rect fill="#FFFFFF" height="71.2656" style="stroke:#181818;stroke-width:1.0;" width="10" x="1906.7021" y="170.6953"/><rect fill="#FFFFFF" height="71.2656" style="stroke:#181818;stroke-width:1.0;" width="10" x="1906.7021" y="499.1563"/><rect fill="#FFFFFF" height="71.2656" style="stroke:#181818;stroke-width:1.0;" width="10" x="1906.7021" y="861.75"/><rect fill="#FFFFFF" height="71.2656" style="stroke:#181818;stroke-width:1.0;" width="10" x="1906.7021" y="1224.3438"/><polygon fill="#181818" points="218.7109,108.4297,228.7109,112.4297,218.7109,116.4297,222.7109,112.4297" style="stroke:#181818;stroke-width:1.0;"/><line style="stroke:#181818;stroke-width:1.0;" x1="38.9551" x2="224.7109" y1="112.4297" y2="112.4297"/><text fill="#000000" font-family="sans-serif" font-size="13" lengthAdjust="spacing" textLength="150.084" x="45.9551" y="107.3638">Enter login information</text><polygon fill="#181818" points="1205.561,137.5625,1215.561,141.5625,1205.561,145.5625,1209.561,141.5625" style="stroke:#181818;stroke-width:1.0;"/><line style="stroke:#181818;stroke-width:1.0;" x1="230.7109" x2="1211.561" y1="141.5625" y2="141.5625"/><text fill="#000000" font-family="sans-serif" font-size="13" lengthAdjust="spacing" textLength="196.3774" x="237.7109" y="136.4966">requestConnection(host, port)</text><polygon fill="#181818" points="1894.7021,166.6953,1904.7021,170.6953,1894.7021,174.6953,1898.7021,170.6953" style="stroke:#181818;stroke-width:1.0;"/><line style="stroke:#181818;stroke-width:1.0;" x1="1227.561" x2="1900.7021" y1="170.6953" y2="170.6953"/><text fill="#000000" font-family="sans-serif" font-size="13" lengthAdjust="spacing" textLength="183.4663" x="1234.561" y="165.6294">connectToServer(host, port)</text><line style="stroke:#181818;stroke-width:1.0;" x1="1916.7021" x2="1958.7021" y1="199.8281" y2="199.8281"/><line style="stroke:#181818;stroke-width:1.0;" x1="1958.7021" x2="1958.7021" y1="199.8281" y2="212.8281"/><line style="stroke:#181818;stroke-width:1.0;" x1="1917.7021" x2="1958.7021" y1="212.8281" y2="212.8281"/><polygon fill="#181818" points="1927.7021,208.8281,1917.7021,212.8281,1927.7021,216.8281,1923.7021,212.8281" style="stroke:#181818;stroke-width:1.0;"/><text fill="#000000" font-family="sans-serif" font-size="13" lengthAdjust="spacing" textLength="179.4229" x="1923.7021" y="194.7622">Process connection request</text><polygon fill="#181818" points="1238.561,237.9609,1228.561,241.9609,1238.561,245.9609,1234.561,241.9609" style="stroke:#181818;stroke-width:1.0;"/><line style="stroke:#181818;stroke-width:1.0;" x1="1232.561" x2="1910.7021" y1="241.9609" y2="241.9609"/><text fill="#000000" font-family="sans-serif" font-size="13" lengthAdjust="spacing" textLength="137.0205" x="1244.561" y="236.895">Connection response</text><polygon fill="#181818" points="241.7109,267.0938,231.7109,271.0938,241.7109,275.0938,237.7109,271.0938" style="stroke:#181818;stroke-width:1.0;"/><line style="stroke:#181818;stroke-width:1.0;" x1="235.7109" x2="1221.561" y1="271.0938" y2="271.0938"/><text fill="#000000" font-family="sans-serif" font-size="13" lengthAdjust="spacing" textLength="181.854" x="247.7109" y="266.0278">connectionResult(response)</text><polygon fill="#181818" points="49.9551,296.2266,39.9551,300.2266,49.9551,304.2266,45.9551,300.2266" style="stroke:#181818;stroke-width:1.0;"/><line style="stroke:#181818;stroke-width:1.0;" x1="43.9551" x2="229.7109" y1="300.2266" y2="300.2266"/><text fill="#000000" font-family="sans-serif" font-size="13" lengthAdjust="spacing" textLength="167.7559" x="55.9551" y="295.1606">Display connection status</text><path d="M10,315.2266 L74.4429,315.2266 L74.4429,322.3594 L64.4429,332.3594 L10,332.3594 L10,315.2266 " fill="#EEEEEE" style="stroke:#000000;stroke-width:1.5;"/><rect fill="none" height="1148.8516" style="stroke:#000000;stroke-width:1.5;" width="2039.3657" x="10" y="315.2266"/><text fill="#000000" font-family="sans-serif" font-size="13" font-weight="bold" lengthAdjust="spacing" textLength="19.4429" x="25" y="328.2935">alt</text><text fill="#000000" font-family="sans-serif" font-size="11" font-weight="bold" lengthAdjust="spacing" textLength="146.3838" x="89.4429" y="327.437">[connection successful]</text><polygon fill="#181818" points="218.7109,349.4922,228.7109,353.4922,218.7109,357.4922,222.7109,353.4922" style="stroke:#181818;stroke-width:1.0;"/><line style="stroke:#181818;stroke-width:1.0;" x1="38.9551" x2="224.7109" y1="353.4922" y2="353.4922"/><text fill="#000000" font-family="sans-serif" font-size="13" lengthAdjust="spacing" textLength="150.084" x="45.9551" y="348.4263">Enter login information</text><polygon fill="#181818" points="1027.1689,378.625,1037.1689,382.625,1027.1689,386.625,1031.1689,382.625" style="stroke:#181818;stroke-width:1.0;"/><line style="stroke:#181818;stroke-width:1.0;" x1="230.7109" x2="1033.1689" y1="382.625" y2="382.625"/><text fill="#000000" font-family="sans-serif" font-size="13" lengthAdjust="spacing" textLength="211.3579" x="237.7109" y="377.5591">createRequest(Login, loginData)</text><polygon fill="#181818" points="1210.561,407.7578,1220.561,411.7578,1210.561,415.7578,1214.561,411.7578" style="stroke:#181818;stroke-width:1.0;"/><line style="stroke:#181818;stroke-width:1.0;" x1="1044.1689" x2="1216.561" y1="411.7578" y2="411.7578"/><text fill="#000000" font-family="sans-serif" font-size="13" lengthAdjust="spacing" textLength="149.3921" x="1051.1689" y="406.6919">makeRequest(request)</text><polygon fill="#181818" points="1383.9531,436.8906,1393.9531,440.8906,1383.9531,444.8906,1387.9531,440.8906" style="stroke:#181818;stroke-width:1.0;"/><line style="stroke:#181818;stroke-width:1.0;" x1="1222.561" x2="1389.9531" y1="440.8906" y2="440.8906"/><text fill="#000000" font-family="sans-serif" font-size="13" lengthAdjust="spacing" textLength="149.3921" x="1229.561" y="435.8247">makeRequest(request)</text><polygon fill="#181818" points="1567.4512,466.0234,1577.4512,470.0234,1567.4512,474.0234,1571.4512,470.0234" style="stroke:#181818;stroke-width:1.0;"/><line style="stroke:#181818;stroke-width:1.0;" x1="1405.9531" x2="1573.4512" y1="470.0234" y2="470.0234"/><text fill="#000000" font-family="sans-serif" font-size="13" lengthAdjust="spacing" textLength="144.498" x="1412.9531" y="464.9575">sendRequest(request)</text><polygon fill="#181818" points="1894.7021,495.1563,1904.7021,499.1563,1894.7021,503.1563,1898.7021,499.1563" style="stroke:#181818;stroke-width:1.0;"/><line style="stroke:#181818;stroke-width:1.0;" x1="1589.4512" x2="1900.7021" y1="499.1563" y2="499.1563"/><text fill="#000000" font-family="sans-serif" font-size="13" lengthAdjust="spacing" textLength="167.8384" x="1596.4512" y="494.0903">sendTcpRequest(request)</text><line style="stroke:#181818;stroke-width:1.0;" x1="1916.7021" x2="1958.7021" y1="528.2891" y2="528.2891"/><line style="stroke:#181818;stroke-width:1.0;" x1="1958.7021" x2="1958.7021" y1="528.2891" y2="541.2891"/><line style="stroke:#181818;stroke-width:1.0;" x1="1917.7021" x2="1958.7021" y1="541.2891" y2="541.2891"/><polygon fill="#181818" points="1927.7021,537.2891,1917.7021,541.2891,1927.7021,545.2891,1923.7021,541.2891" style="stroke:#181818;stroke-width:1.0;"/><text fill="#000000" font-family="sans-serif" font-size="13" lengthAdjust="spacing" textLength="103.6636" x="1923.7021" y="523.2231">Process request</text><polygon fill="#181818" points="1600.4512,566.4219,1590.4512,570.4219,1600.4512,574.4219,1596.4512,570.4219" style="stroke:#181818;stroke-width:1.0;"/><line style="stroke:#181818;stroke-width:1.0;" x1="1594.4512" x2="1910.7021" y1="570.4219" y2="570.4219"/><text fill="#000000" font-family="sans-serif" font-size="13" lengthAdjust="spacing" textLength="195.3174" x="1606.4512" y="565.356">sendResponseBack(response)</text><polygon fill="#181818" points="1778.2524,595.5547,1788.2524,599.5547,1778.2524,603.5547,1782.2524,599.5547" style="stroke:#181818;stroke-width:1.0;"/><line style="stroke:#181818;stroke-width:1.0;" x1="1584.4512" x2="1784.2524" y1="599.5547" y2="599.5547"/><text fill="#000000" font-family="sans-serif" font-size="13" lengthAdjust="spacing" textLength="176.8013" x="1591.4512" y="594.4888">handleResponse(response)</text><polygon fill="#181818" points="1238.561,624.6875,1228.561,628.6875,1238.561,632.6875,1234.561,628.6875" style="stroke:#181818;stroke-width:1.0;"/><line style="stroke:#181818;stroke-width:1.0;" x1="1232.561" x2="1789.2524" y1="628.6875" y2="628.6875"/><text fill="#000000" font-family="sans-serif" font-size="13" lengthAdjust="spacing" textLength="176.8013" x="1244.561" y="623.6216">handleResponse(response)</text><polygon fill="#181818" points="241.7109,653.8203,231.7109,657.8203,241.7109,661.8203,237.7109,657.8203" style="stroke:#181818;stroke-width:1.0;"/><line style="stroke:#181818;stroke-width:1.0;" x1="235.7109" x2="1216.561" y1="657.8203" y2="657.8203"/><text fill="#000000" font-family="sans-serif" font-size="13" lengthAdjust="spacing" textLength="169.749" x="247.7109" y="652.7544">responseReady(response)</text><polygon fill="#181818" points="49.9551,682.9531,39.9551,686.9531,49.9551,690.9531,45.9551,686.9531" style="stroke:#181818;stroke-width:1.0;"/><line style="stroke:#181818;stroke-width:1.0;" x1="43.9551" x2="229.7109" y1="686.9531" y2="686.9531"/><text fill="#000000" font-family="sans-serif" font-size="13" lengthAdjust="spacing" textLength="124.9155" x="55.9551" y="681.8872">Display login result</text><polygon fill="#181818" points="467.7993,712.0859,477.7993,716.0859,467.7993,720.0859,471.7993,716.0859" style="stroke:#181818;stroke-width:1.0;"/><line style="stroke:#181818;stroke-width:1.0;" x1="38.9551" x2="473.7993" y1="716.0859" y2="716.0859"/><text fill="#000000" font-family="sans-serif" font-size="13" lengthAdjust="spacing" textLength="416.8442" x="45.9551" y="711.02">Operation (update email/password, view balance, transfer, etc.)</text><polygon fill="#181818" points="1027.1689,741.2188,1037.1689,745.2188,1027.1689,749.2188,1031.1689,745.2188" style="stroke:#181818;stroke-width:1.0;"/><line style="stroke:#181818;stroke-width:1.0;" x1="479.7993" x2="1033.1689" y1="745.2188" y2="745.2188"/><text fill="#000000" font-family="sans-serif" font-size="13" lengthAdjust="spacing" textLength="224.2183" x="486.7993" y="740.1528">createRequest(requestType, data)</text><polygon fill="#181818" points="1210.561,770.3516,1220.561,774.3516,1210.561,778.3516,1214.561,774.3516" style="stroke:#181818;stroke-width:1.0;"/><line style="stroke:#181818;stroke-width:1.0;" x1="1044.1689" x2="1216.561" y1="774.3516" y2="774.3516"/><text fill="#000000" font-family="sans-serif" font-size="13" lengthAdjust="spacing" textLength="149.3921" x="1051.1689" y="769.2856">makeRequest(request)</text><polygon fill="#181818" points="1388.9531,799.4844,1398.9531,803.4844,1388.9531,807.4844,1392.9531,803.4844" style="stroke:#181818;stroke-width:1.0;"/><line style="stroke:#181818;stroke-width:1.0;" x1="1222.561" x2="1394.9531" y1="803.4844" y2="803.4844"/><text fill="#000000" font-family="sans-serif" font-size="13" lengthAdjust="spacing" textLength="149.3921" x="1229.561" y="798.4185">makeRequest(request)</text><polygon fill="#181818" points="1567.4512,828.6172,1577.4512,832.6172,1567.4512,836.6172,1571.4512,832.6172" style="stroke:#181818;stroke-width:1.0;"/><line style="stroke:#181818;stroke-width:1.0;" x1="1410.9531" x2="1573.4512" y1="832.6172" y2="832.6172"/><text fill="#000000" font-family="sans-serif" font-size="13" lengthAdjust="spacing" textLength="144.498" x="1417.9531" y="827.5513">sendRequest(request)</text><polygon fill="#181818" points="1894.7021,857.75,1904.7021,861.75,1894.7021,865.75,1898.7021,861.75" style="stroke:#181818;stroke-width:1.0;"/><line style="stroke:#181818;stroke-width:1.0;" x1="1589.4512" x2="1900.7021" y1="861.75" y2="861.75"/><text fill="#000000" font-family="sans-serif" font-size="13" lengthAdjust="spacing" textLength="167.8384" x="1596.4512" y="856.6841">sendTcpRequest(request)</text><line style="stroke:#181818;stroke-width:1.0;" x1="1916.7021" x2="1958.7021" y1="890.8828" y2="890.8828"/><line style="stroke:#181818;stroke-width:1.0;" x1="1958.7021" x2="1958.7021" y1="890.8828" y2="903.8828"/><line style="stroke:#181818;stroke-width:1.0;" x1="1917.7021" x2="1958.7021" y1="903.8828" y2="903.8828"/><polygon fill="#181818" points="1927.7021,899.8828,1917.7021,903.8828,1927.7021,907.8828,1923.7021,903.8828" style="stroke:#181818;stroke-width:1.0;"/><text fill="#000000" font-family="sans-serif" font-size="13" lengthAdjust="spacing" textLength="103.6636" x="1923.7021" y="885.8169">Process request</text><polygon fill="#181818" points="1600.4512,929.0156,1590.4512,933.0156,1600.4512,937.0156,1596.4512,933.0156" style="stroke:#181818;stroke-width:1.0;"/><line style="stroke:#181818;stroke-width:1.0;" x1="1594.4512" x2="1910.7021" y1="933.0156" y2="933.0156"/><text fill="#000000" font-family="sans-serif" font-size="13" lengthAdjust="spacing" textLength="195.3174" x="1606.4512" y="927.9497">sendResponseBack(response)</text><polygon fill="#181818" points="1778.2524,958.1484,1788.2524,962.1484,1778.2524,966.1484,1782.2524,962.1484" style="stroke:#181818;stroke-width:1.0;"/><line style="stroke:#181818;stroke-width:1.0;" x1="1584.4512" x2="1784.2524" y1="962.1484" y2="962.1484"/><text fill="#000000" font-family="sans-serif" font-size="13" lengthAdjust="spacing" textLength="176.8013" x="1591.4512" y="957.0825">handleResponse(response)</text><polygon fill="#181818" points="1238.561,987.2813,1228.561,991.2813,1238.561,995.2813,1234.561,991.2813" style="stroke:#181818;stroke-width:1.0;"/><line style="stroke:#181818;stroke-width:1.0;" x1="1232.561" x2="1789.2524" y1="991.2813" y2="991.2813"/><text fill="#000000" font-family="sans-serif" font-size="13" lengthAdjust="spacing" textLength="176.8013" x="1244.561" y="986.2153">handleResponse(response)</text><polygon fill="#181818" points="490.7993,1016.4141,480.7993,1020.4141,490.7993,1024.4141,486.7993,1020.4141" style="stroke:#181818;stroke-width:1.0;"/><line style="stroke:#181818;stroke-width:1.0;" x1="484.7993" x2="1216.561" y1="1020.4141" y2="1020.4141"/><text fill="#000000" font-family="sans-serif" font-size="13" lengthAdjust="spacing" textLength="169.749" x="496.7993" y="1015.3481">responseReady(response)</text><polygon fill="#181818" points="49.9551,1045.5469,39.9551,1049.5469,49.9551,1053.5469,45.9551,1049.5469" style="stroke:#181818;stroke-width:1.0;"/><line style="stroke:#181818;stroke-width:1.0;" x1="43.9551" x2="478.7993" y1="1049.5469" y2="1049.5469"/><text fill="#000000" font-family="sans-serif" font-size="13" lengthAdjust="spacing" textLength="155.6636" x="55.9551" y="1044.481">Display operation result</text><polygon fill="#181818" points="783.9507,1074.6797,793.9507,1078.6797,783.9507,1082.6797,787.9507,1078.6797" style="stroke:#181818;stroke-width:1.0;"/><line style="stroke:#181818;stroke-width:1.0;" x1="38.9551" x2="789.9507" y1="1078.6797" y2="1078.6797"/><text fill="#000000" font-family="sans-serif" font-size="13" lengthAdjust="spacing" textLength="732.9956" x="45.9551" y="1073.6138">Operation (update user information/password, create user, delete user, view database/transaction records, etc.)</text><polygon fill="#181818" points="1027.1689,1103.8125,1037.1689,1107.8125,1027.1689,1111.8125,1031.1689,1107.8125" style="stroke:#181818;stroke-width:1.0;"/><line style="stroke:#181818;stroke-width:1.0;" x1="795.9507" x2="1033.1689" y1="1107.8125" y2="1107.8125"/><text fill="#000000" font-family="sans-serif" font-size="13" lengthAdjust="spacing" textLength="224.2183" x="802.9507" y="1102.7466">createRequest(requestType, data)</text><polygon fill="#181818" points="1210.561,1132.9453,1220.561,1136.9453,1210.561,1140.9453,1214.561,1136.9453" style="stroke:#181818;stroke-width:1.0;"/><line style="stroke:#181818;stroke-width:1.0;" x1="1044.1689" x2="1216.561" y1="1136.9453" y2="1136.9453"/><text fill="#000000" font-family="sans-serif" font-size="13" lengthAdjust="spacing" textLength="149.3921" x="1051.1689" y="1131.8794">makeRequest(request)</text><polygon fill="#181818" points="1393.9531,1162.0781,1403.9531,1166.0781,1393.9531,1170.0781,1397.9531,1166.0781" style="stroke:#181818;stroke-width:1.0;"/><line style="stroke:#181818;stroke-width:1.0;" x1="1222.561" x2="1399.9531" y1="1166.0781" y2="1166.0781"/><text fill="#000000" font-family="sans-serif" font-size="13" lengthAdjust="spacing" textLength="149.3921" x="1229.561" y="1161.0122">makeRequest(request)</text><polygon fill="#181818" points="1567.4512,1191.2109,1577.4512,1195.2109,1567.4512,1199.2109,1571.4512,1195.2109" style="stroke:#181818;stroke-width:1.0;"/><line style="stroke:#181818;stroke-width:1.0;" x1="1415.9531" x2="1573.4512" y1="1195.2109" y2="1195.2109"/><text fill="#000000" font-family="sans-serif" font-size="13" lengthAdjust="spacing" textLength="144.498" x="1422.9531" y="1190.145">sendRequest(request)</text><polygon fill="#181818" points="1894.7021,1220.3438,1904.7021,1224.3438,1894.7021,1228.3438,1898.7021,1224.3438" style="stroke:#181818;stroke-width:1.0;"/><line style="stroke:#181818;stroke-width:1.0;" x1="1589.4512" x2="1900.7021" y1="1224.3438" y2="1224.3438"/><text fill="#000000" font-family="sans-serif" font-size="13" lengthAdjust="spacing" textLength="167.8384" x="1596.4512" y="1219.2778">sendTcpRequest(request)</text><line style="stroke:#181818;stroke-width:1.0;" x1="1916.7021" x2="1958.7021" y1="1253.4766" y2="1253.4766"/><line style="stroke:#181818;stroke-width:1.0;" x1="1958.7021" x2="1958.7021" y1="1253.4766" y2="1266.4766"/><line style="stroke:#181818;stroke-width:1.0;" x1="1917.7021" x2="1958.7021" y1="1266.4766" y2="1266.4766"/><polygon fill="#181818" points="1927.7021,1262.4766,1917.7021,1266.4766,1927.7021,1270.4766,1923.7021,1266.4766" style="stroke:#181818;stroke-width:1.0;"/><text fill="#000000" font-family="sans-serif" font-size="13" lengthAdjust="spacing" textLength="103.6636" x="1923.7021" y="1248.4106">Process request</text><polygon fill="#181818" points="1600.4512,1291.6094,1590.4512,1295.6094,1600.4512,1299.6094,1596.4512,1295.6094" style="stroke:#181818;stroke-width:1.0;"/><line style="stroke:#181818;stroke-width:1.0;" x1="1594.4512" x2="1910.7021" y1="1295.6094" y2="1295.6094"/><text fill="#000000" font-family="sans-serif" font-size="13" lengthAdjust="spacing" textLength="195.3174" x="1606.4512" y="1290.5435">sendResponseBack(response)</text><polygon fill="#181818" points="1778.2524,1320.7422,1788.2524,1324.7422,1778.2524,1328.7422,1782.2524,1324.7422" style="stroke:#181818;stroke-width:1.0;"/><line style="stroke:#181818;stroke-width:1.0;" x1="1584.4512" x2="1784.2524" y1="1324.7422" y2="1324.7422"/><text fill="#000000" font-family="sans-serif" font-size="13" lengthAdjust="spacing" textLength="176.8013" x="1591.4512" y="1319.6763">handleResponse(response)</text><polygon fill="#181818" points="1238.561,1349.875,1228.561,1353.875,1238.561,1357.875,1234.561,1353.875" style="stroke:#181818;stroke-width:1.0;"/><line style="stroke:#181818;stroke-width:1.0;" x1="1232.561" x2="1789.2524" y1="1353.875" y2="1353.875"/><text fill="#000000" font-family="sans-serif" font-size="13" lengthAdjust="spacing" textLength="176.8013" x="1244.561" y="1348.8091">handleResponse(response)</text><polygon fill="#181818" points="806.9507,1379.0078,796.9507,1383.0078,806.9507,1387.0078,802.9507,1383.0078" style="stroke:#181818;stroke-width:1.0;"/><line style="stroke:#181818;stroke-width:1.0;" x1="800.9507" x2="1216.561" y1="1383.0078" y2="1383.0078"/><text fill="#000000" font-family="sans-serif" font-size="13" lengthAdjust="spacing" textLength="169.749" x="812.9507" y="1377.9419">responseReady(response)</text><polygon fill="#181818" points="49.9551,1408.1406,39.9551,1412.1406,49.9551,1416.1406,45.9551,1412.1406" style="stroke:#181818;stroke-width:1.0;"/><line style="stroke:#181818;stroke-width:1.0;" x1="43.9551" x2="794.9507" y1="1412.1406" y2="1412.1406"/><text fill="#000000" font-family="sans-serif" font-size="13" lengthAdjust="spacing" textLength="155.6636" x="55.9551" y="1407.0747">Display operation result</text><line style="stroke:#000000;stroke-width:1.0;stroke-dasharray:2.0,2.0;" x1="10" x2="2049.3657" y1="1421.1406" y2="1421.1406"/><text fill="#000000" font-family="sans-serif" font-size="11" font-weight="bold" lengthAdjust="spacing" textLength="117.106" x="15" y="1431.3511">[connection failed]</text><polygon fill="#181818" points="49.9551,1452.0781,39.9551,1456.0781,49.9551,1460.0781,45.9551,1456.0781" style="stroke:#181818;stroke-width:1.0;"/><line style="stroke:#181818;stroke-width:1.0;" x1="43.9551" x2="229.7109" y1="1456.0781" y2="1456.0781"/><text fill="#000000" font-family="sans-serif" font-size="13" lengthAdjust="spacing" textLength="159.7959" x="55.9551" y="1451.0122">Display connection error</text><!--SRC=[xPR1ZjiW48RlVWgEYUHsxpvKscOhjLAhLcbMFS_296ij0Geugxnz0SS42FLsUwggv6GFCpypu_a2GAtKvDwWRXHeszDUWR3aizpruaVFTcWpktUic6_Plkg-nfy36li51EoA7Uu_rQotIjNCAzwZi1z1C5wihD4eAGpMeZPKZO5Du_CcRzwbTNNaWx3Eohs9z68hzHviBqMJEFcOc6b7z5ZFIWg1rFik7gMnBL5IssK3pdG0YqbjJNpqIZ6XZj1HOYE_epwWhkia1SJ7GkURbXIDcVHSIbEIUKXIn2fr7RlNCAnjcYMVjUwydVi00xUBIMcPIYLzA7jgV2PtlL4SZcdone8TJDC0jvbveBxCxS0Rudwl-fm-eDW-dqjNZaQNxycw2Cxjg7G75fP18bPL37LOp6r5m_Vm5BLF7sUKJ5fL4ytQVoPZHZ3A9Ho5XVExryfmweX1mURbSlx2McOgXj8BkjTvpMJElFsb0P-c-iAtMimuZE-1FYMJMRIyIE2YeEAlfIEFOMqo_rwuqgr2gnYGMU4QJHVJaO4mnQyHsB5Gc-LmP4S7eikYojrF19uFX8vyLQW3ScGnAEQ3S0yzlr5WpBFKh2M77f_90t0G55jYDGYpHTqIjFJjCkh-AQUdaTWSbHDZLr2leFxxeAQyp76QSv1ZAYDdhq8rkQJLM1syMt9k9jYEs0KF1nfoZ2y1Q8_U0nYy2K33TBMWBjQaR2S9NE6-mlt_mPqHDaTtGSBVuetSO7fBthhJ5jdBvtmIWbfB9oJOBm00]--></g></svg>