<svg xmlns="http://www.w3.org/2000/svg" xmlns:xlink="http://www.w3.org/1999/xlink" contentStyleType="text/css" height="713px" preserveAspectRatio="none" style="width:2461px;height:713px;background:#FFFFFF;" version="1.1" viewBox="0 0 2461 713" width="2461px" zoomAndPan="magnify">
  <defs>
    <style type="text/css">a:hover { text-decoration: underline; }</style>
  </defs>
  <g>
    <g id="cluster_C_0009392701334512935369">
      <path d="M8.5,6 L31.5,6 A3.75,3.75 0 0 1 34,8.5 L41,29.6094 L2451.5,29.6094 A2.5,2.5 0 0 1 2454,32.1094 L2454,703.5 A2.5,2.5 0 0 1 2451.5,706 L8.5,706 A2.5,2.5 0 0 1 6,703.5 L6,8.5 A2.5,2.5 0 0 1 8.5,6 " fill="none" style="stroke:#000000;stroke-width:1.5;"/>
      <line style="stroke:#000000;stroke-width:1.5;" x1="6" x2="41" y1="29.6094" y2="29.6094"/>
      <text fill="#000000" font-family="sans-serif" font-size="14" font-weight="bold" lengthAdjust="spacing" textLength="22" x="10" y="22.5332">src</text>
    </g>
    <g id="cluster_C_0014176827974556851772">
      <path d="M660.5,238 L718.5,238 A3.75,3.75 0 0 1 721,240.5 L728,261.6094 L1215.5,261.6094 A2.5,2.5 0 0 1 1218,264.1094 L1218,507.5 A2.5,2.5 0 0 1 1215.5,510 L660.5,510 A2.5,2.5 0 0 1 658,507.5 L658,240.5 A2.5,2.5 0 0 1 660.5,238 " fill="none" style="stroke:#000000;stroke-width:1.5;"/>
      <line style="stroke:#000000;stroke-width:1.5;" x1="658" x2="728" y1="261.6094" y2="261.6094"/>
      <text fill="#000000" font-family="sans-serif" font-size="14" font-weight="bold" lengthAdjust="spacing" textLength="57" x="662" y="254.5332">Widgets</text>
    </g>
    <g id="cluster_C_0010347011073788372111">
      <path d="M1034.5,282 L1127.5,282 A3.75,3.75 0 0 1 1130,284.5 L1137,305.6094 L1191.5,305.6094 A2.5,2.5 0 0 1 1194,308.1094 L1194,483.5 A2.5,2.5 0 0 1 1191.5,486 L1034.5,486 A2.5,2.5 0 0 1 1032,483.5 L1032,284.5 A2.5,2.5 0 0 1 1034.5,282 " fill="none" style="stroke:#000000;stroke-width:1.5;"/>
      <line style="stroke:#000000;stroke-width:1.5;" x1="1032" x2="1137" y1="305.6094" y2="305.6094"/>
      <text fill="#000000" font-family="sans-serif" font-size="14" font-weight="bold" lengthAdjust="spacing" textLength="92" x="1036" y="298.5332">AdminWidget</text>
    </g>
    <g id="cluster_C_0009763794611585888067">
      <path d="M858.5,282 L941.5,282 A3.75,3.75 0 0 1 944,284.5 L951,305.6094 L1005.5,305.6094 A2.5,2.5 0 0 1 1008,308.1094 L1008,483.5 A2.5,2.5 0 0 1 1005.5,486 L858.5,486 A2.5,2.5 0 0 1 856,483.5 L856,284.5 A2.5,2.5 0 0 1 858.5,282 " fill="none" style="stroke:#000000;stroke-width:1.5;"/>
      <line style="stroke:#000000;stroke-width:1.5;" x1="856" x2="951" y1="305.6094" y2="305.6094"/>
      <text fill="#000000" font-family="sans-serif" font-size="14" font-weight="bold" lengthAdjust="spacing" textLength="82" x="860" y="298.5332">UserWidget</text>
    </g>
    <g id="cluster_C_0013767205248218814589">
      <path d="M684.5,282 L773.5,282 A3.75,3.75 0 0 1 776,284.5 L783,305.6094 L829.5,305.6094 A2.5,2.5 0 0 1 832,308.1094 L832,483.5 A2.5,2.5 0 0 1 829.5,486 L684.5,486 A2.5,2.5 0 0 1 682,483.5 L682,284.5 A2.5,2.5 0 0 1 684.5,282 " fill="none" style="stroke:#000000;stroke-width:1.5;"/>
      <line style="stroke:#000000;stroke-width:1.5;" x1="682" x2="783" y1="305.6094" y2="305.6094"/>
      <text fill="#000000" font-family="sans-serif" font-size="14" font-weight="bold" lengthAdjust="spacing" textLength="88" x="686" y="298.5332">LoginWidget</text>
    </g>
    <g id="cluster_C_0007249139127462911352">
      <path d="M1244.5,396 L1353.5,396 A3.75,3.75 0 0 1 1356,398.5 L1363,419.6094 L1630.5,419.6094 A2.5,2.5 0 0 1 1633,422.1094 L1633,581.5 A2.5,2.5 0 0 1 1630.5,584 L1244.5,584 A2.5,2.5 0 0 1 1242,581.5 L1242,398.5 A2.5,2.5 0 0 1 1244.5,396 " fill="none" style="stroke:#000000;stroke-width:1.5;"/>
      <line style="stroke:#000000;stroke-width:1.5;" x1="1242" x2="1363" y1="419.6094" y2="419.6094"/>
      <text fill="#000000" font-family="sans-serif" font-size="14" font-weight="bold" lengthAdjust="spacing" textLength="108" x="1246" y="412.5332">requestModule</text>
    </g>
    <g id="cluster_C_0017470984763561192632">
      <path d="M1675.5,396 L1728.5,396 A3.75,3.75 0 0 1 1731,398.5 L1738,419.6094 L2427.5,419.6094 A2.5,2.5 0 0 1 2430,422.1094 L2430,679.5 A2.5,2.5 0 0 1 2427.5,682 L1675.5,682 A2.5,2.5 0 0 1 1673,679.5 L1673,398.5 A2.5,2.5 0 0 1 1675.5,396 " fill="none" style="stroke:#000000;stroke-width:1.5;"/>
      <line style="stroke:#000000;stroke-width:1.5;" x1="1673" x2="1738" y1="419.6094" y2="419.6094"/>
      <text fill="#000000" font-family="sans-serif" font-size="14" font-weight="bold" lengthAdjust="spacing" textLength="52" x="1677" y="412.5332">Dialogs</text>
    </g>
    <g id="cluster_C_0011121512235108805536">
      <path d="M32.5,148 L74.5,148 A3.75,3.75 0 0 1 77,150.5 L84,171.6094 L311.5,171.6094 A2.5,2.5 0 0 1 314,174.1094 L314,483.5 A2.5,2.5 0 0 1 311.5,486 L32.5,486 A2.5,2.5 0 0 1 30,483.5 L30,150.5 A2.5,2.5 0 0 1 32.5,148 " fill="none" style="stroke:#000000;stroke-width:1.5;"/>
      <line style="stroke:#000000;stroke-width:1.5;" x1="30" x2="84" y1="171.6094" y2="171.6094"/>
      <text fill="#000000" font-family="sans-serif" font-size="14" font-weight="bold" lengthAdjust="spacing" textLength="41" x="34" y="164.5332">Client</text>
    </g>
    <g id="cluster_C_0011206568869901917921">
      <path d="M340.5,50 L430.5,50 A3.75,3.75 0 0 1 433,52.5 L440,73.6094 L631.5,73.6094 A2.5,2.5 0 0 1 634,76.1094 L634,369.5 A2.5,2.5 0 0 1 631.5,372 L340.5,372 A2.5,2.5 0 0 1 338,369.5 L338,52.5 A2.5,2.5 0 0 1 340.5,50 " fill="none" style="stroke:#000000;stroke-width:1.5;"/>
      <line style="stroke:#000000;stroke-width:1.5;" x1="338" x2="440" y1="73.6094" y2="73.6094"/>
      <text fill="#000000" font-family="sans-serif" font-size="14" font-weight="bold" lengthAdjust="spacing" textLength="89" x="342" y="66.5332">AppManager</text>
    </g>
    <g id="elem_C_0008309121906808763839">
      <path d="M1048,320.5 L1048,353.1094 A2.5,2.5 0 0 0 1050.5,355.6094 L1175.5,355.6094 A2.5,2.5 0 0 0 1178,353.1094 L1178,328 L1168,318 L1050.5,318 A2.5,2.5 0 0 0 1048,320.5 " fill="#F1F1F1" style="stroke:#181818;stroke-width:0.5;"/>
      <path d="M1168,318 L1168,325.5 A2.5,2.5 0 0 0 1170.5,328 L1178,328 " fill="#F1F1F1" style="stroke:#181818;stroke-width:0.5;"/>
      <text fill="#000000" font-family="sans-serif" font-size="14" lengthAdjust="spacing" textLength="110" x="1058" y="342.5332">AdminWidget.cpp</text>
    </g>
    <g id="elem_C_0004140566297497285282">
      <path d="M1055.5,434.5 L1055.5,467.1094 A2.5,2.5 0 0 0 1058,469.6094 L1168,469.6094 A2.5,2.5 0 0 0 1170.5,467.1094 L1170.5,442 L1160.5,432 L1058,432 A2.5,2.5 0 0 0 1055.5,434.5 " fill="#F1F1F1" style="stroke:#181818;stroke-width:0.5;"/>
      <path d="M1160.5,432 L1160.5,439.5 A2.5,2.5 0 0 0 1163,442 L1170.5,442 " fill="#F1F1F1" style="stroke:#181818;stroke-width:0.5;"/>
      <text fill="#000000" font-family="sans-serif" font-size="14" lengthAdjust="spacing" textLength="95" x="1065.5" y="456.5332">AdminWidget.h</text>
    </g>
    <g id="elem_C_0012950180607479447001">
      <path d="M872,320.5 L872,353.1094 A2.5,2.5 0 0 0 874.5,355.6094 L989.5,355.6094 A2.5,2.5 0 0 0 992,353.1094 L992,328 L982,318 L874.5,318 A2.5,2.5 0 0 0 872,320.5 " fill="#F1F1F1" style="stroke:#181818;stroke-width:0.5;"/>
      <path d="M982,318 L982,325.5 A2.5,2.5 0 0 0 984.5,328 L992,328 " fill="#F1F1F1" style="stroke:#181818;stroke-width:0.5;"/>
      <text fill="#000000" font-family="sans-serif" font-size="14" lengthAdjust="spacing" textLength="100" x="882" y="342.5332">UserWidget.cpp</text>
    </g>
    <g id="elem_C_0000372268219133550912">
      <path d="M879.5,434.5 L879.5,467.1094 A2.5,2.5 0 0 0 882,469.6094 L982,469.6094 A2.5,2.5 0 0 0 984.5,467.1094 L984.5,442 L974.5,432 L882,432 A2.5,2.5 0 0 0 879.5,434.5 " fill="#F1F1F1" style="stroke:#181818;stroke-width:0.5;"/>
      <path d="M974.5,432 L974.5,439.5 A2.5,2.5 0 0 0 977,442 L984.5,442 " fill="#F1F1F1" style="stroke:#181818;stroke-width:0.5;"/>
      <text fill="#000000" font-family="sans-serif" font-size="14" lengthAdjust="spacing" textLength="85" x="889.5" y="456.5332">UserWidget.h</text>
    </g>
    <g id="elem_C_0008799684567918779338">
      <path d="M706,434.5 L706,467.1094 A2.5,2.5 0 0 0 708.5,469.6094 L805.5,469.6094 A2.5,2.5 0 0 0 808,467.1094 L808,442 L798,432 L708.5,432 A2.5,2.5 0 0 0 706,434.5 " fill="#F1F1F1" style="stroke:#181818;stroke-width:0.5;"/>
      <path d="M798,432 L798,439.5 A2.5,2.5 0 0 0 800.5,442 L808,442 " fill="#F1F1F1" style="stroke:#181818;stroke-width:0.5;"/>
      <text fill="#000000" font-family="sans-serif" font-size="14" lengthAdjust="spacing" textLength="82" x="716" y="456.5332">loginwidget.h</text>
    </g>
    <g id="elem_C_0009177402481112612119">
      <path d="M698.5,320.5 L698.5,353.1094 A2.5,2.5 0 0 0 701,355.6094 L813,355.6094 A2.5,2.5 0 0 0 815.5,353.1094 L815.5,328 L805.5,318 L701,318 A2.5,2.5 0 0 0 698.5,320.5 " fill="#F1F1F1" style="stroke:#181818;stroke-width:0.5;"/>
      <path d="M805.5,318 L805.5,325.5 A2.5,2.5 0 0 0 808,328 L815.5,328 " fill="#F1F1F1" style="stroke:#181818;stroke-width:0.5;"/>
      <text fill="#000000" font-family="sans-serif" font-size="14" lengthAdjust="spacing" textLength="97" x="708.5" y="342.5332">loginwidget.cpp</text>
    </g>
    <g id="elem_C_0004662975987075955962">
      <path d="M1258.5,532.5 L1258.5,565.1094 A2.5,2.5 0 0 0 1261,567.6094 L1397,567.6094 A2.5,2.5 0 0 0 1399.5,565.1094 L1399.5,540 L1389.5,530 L1261,530 A2.5,2.5 0 0 0 1258.5,532.5 " fill="#F1F1F1" style="stroke:#181818;stroke-width:0.5;"/>
      <path d="M1389.5,530 L1389.5,537.5 A2.5,2.5 0 0 0 1392,540 L1399.5,540 " fill="#F1F1F1" style="stroke:#181818;stroke-width:0.5;"/>
      <text fill="#000000" font-family="sans-serif" font-size="14" lengthAdjust="spacing" textLength="121" x="1268.5" y="554.5332">RequestManager.h</text>
    </g>
    <g id="elem_C_0003243005645601454693">
      <path d="M1449.5,434.5 L1449.5,467.1094 A2.5,2.5 0 0 0 1452,469.6094 L1614,469.6094 A2.5,2.5 0 0 0 1616.5,467.1094 L1616.5,442 L1606.5,432 L1452,432 A2.5,2.5 0 0 0 1449.5,434.5 " fill="#F1F1F1" style="stroke:#181818;stroke-width:0.5;"/>
      <path d="M1606.5,432 L1606.5,439.5 A2.5,2.5 0 0 0 1609,442 L1616.5,442 " fill="#F1F1F1" style="stroke:#181818;stroke-width:0.5;"/>
      <text fill="#000000" font-family="sans-serif" font-size="14" lengthAdjust="spacing" textLength="147" x="1459.5" y="456.5332">ResponseManager.cpp</text>
    </g>
    <g id="elem_C_0015076305304167085100">
      <path d="M1446,532.5 L1446,565.1094 A2.5,2.5 0 0 0 1448.5,567.6094 L1595.5,567.6094 A2.5,2.5 0 0 0 1598,565.1094 L1598,540 L1588,530 L1448.5,530 A2.5,2.5 0 0 0 1446,532.5 " fill="#F1F1F1" style="stroke:#181818;stroke-width:0.5;"/>
      <path d="M1588,530 L1588,537.5 A2.5,2.5 0 0 0 1590.5,540 L1598,540 " fill="#F1F1F1" style="stroke:#181818;stroke-width:0.5;"/>
      <text fill="#000000" font-family="sans-serif" font-size="14" lengthAdjust="spacing" textLength="132" x="1456" y="554.5332">ResponseManager.h</text>
    </g>
    <g id="elem_C_0015680580263724453319">
      <path d="M1258,434.5 L1258,467.1094 A2.5,2.5 0 0 0 1260.5,469.6094 L1411.5,469.6094 A2.5,2.5 0 0 0 1414,467.1094 L1414,442 L1404,432 L1260.5,432 A2.5,2.5 0 0 0 1258,434.5 " fill="#F1F1F1" style="stroke:#181818;stroke-width:0.5;"/>
      <path d="M1404,432 L1404,439.5 A2.5,2.5 0 0 0 1406.5,442 L1414,442 " fill="#F1F1F1" style="stroke:#181818;stroke-width:0.5;"/>
      <text fill="#000000" font-family="sans-serif" font-size="14" lengthAdjust="spacing" textLength="136" x="1268" y="456.5332">RequestManager.cpp</text>
    </g>
    <g id="elem_C_0001470670052551214060">
      <path d="M2089,434.5 L2089,467.1094 A2.5,2.5 0 0 0 2091.5,469.6094 L2232.5,469.6094 A2.5,2.5 0 0 0 2235,467.1094 L2235,442 L2225,432 L2091.5,432 A2.5,2.5 0 0 0 2089,434.5 " fill="#F1F1F1" style="stroke:#181818;stroke-width:0.5;"/>
      <path d="M2225,432 L2225,439.5 A2.5,2.5 0 0 0 2227.5,442 L2235,442 " fill="#F1F1F1" style="stroke:#181818;stroke-width:0.5;"/>
      <text fill="#000000" font-family="sans-serif" font-size="14" lengthAdjust="spacing" textLength="126" x="2099" y="456.5332">UpdateUserDialog.h</text>
    </g>
    <g id="elem_C_0006158485752258116163">
      <path d="M1995,532.5 L1995,565.1094 A2.5,2.5 0 0 0 1997.5,567.6094 L2096.5,567.6094 A2.5,2.5 0 0 0 2099,565.1094 L2099,540 L2089,530 L1997.5,530 A2.5,2.5 0 0 0 1995,532.5 " fill="#F1F1F1" style="stroke:#181818;stroke-width:0.5;"/>
      <path d="M2089,530 L2089,537.5 A2.5,2.5 0 0 0 2091.5,540 L2099,540 " fill="#F1F1F1" style="stroke:#181818;stroke-width:0.5;"/>
      <text fill="#000000" font-family="sans-serif" font-size="14" lengthAdjust="spacing" textLength="84" x="2005" y="554.5332">BaseDialog.h</text>
    </g>
    <g id="elem_C_0011846255136749913892">
      <path d="M1973.5,630.5 L1973.5,663.1094 A2.5,2.5 0 0 0 1976,665.6094 L2118,665.6094 A2.5,2.5 0 0 0 2120.5,663.1094 L2120.5,638 L2110.5,628 L1976,628 A2.5,2.5 0 0 0 1973.5,630.5 " fill="#F1F1F1" style="stroke:#181818;stroke-width:0.5;"/>
      <path d="M2110.5,628 L2110.5,635.5 A2.5,2.5 0 0 0 2113,638 L2120.5,638 " fill="#F1F1F1" style="stroke:#181818;stroke-width:0.5;"/>
      <text fill="#000000" font-family="sans-serif" font-size="14" lengthAdjust="spacing" textLength="127" x="1983.5" y="652.5332">ValidationStrategy.h</text>
    </g>
    <g id="elem_C_0012440556589828314473">
      <path d="M2270,434.5 L2270,467.1094 A2.5,2.5 0 0 0 2272.5,469.6094 L2411.5,469.6094 A2.5,2.5 0 0 0 2414,467.1094 L2414,442 L2404,432 L2272.5,432 A2.5,2.5 0 0 0 2270,434.5 " fill="#F1F1F1" style="stroke:#181818;stroke-width:0.5;"/>
      <path d="M2404,432 L2404,439.5 A2.5,2.5 0 0 0 2406.5,442 L2414,442 " fill="#F1F1F1" style="stroke:#181818;stroke-width:0.5;"/>
      <text fill="#000000" font-family="sans-serif" font-size="14" lengthAdjust="spacing" textLength="124" x="2280" y="456.5332">CreateUserDialog.h</text>
    </g>
    <g id="elem_C_0017300576026206201541">
      <path d="M1902.5,434.5 L1902.5,467.1094 A2.5,2.5 0 0 0 1905,469.6094 L2051,469.6094 A2.5,2.5 0 0 0 2053.5,467.1094 L2053.5,442 L2043.5,432 L1905,432 A2.5,2.5 0 0 0 1902.5,434.5 " fill="#F1F1F1" style="stroke:#181818;stroke-width:0.5;"/>
      <path d="M2043.5,432 L2043.5,439.5 A2.5,2.5 0 0 0 2046,442 L2053.5,442 " fill="#F1F1F1" style="stroke:#181818;stroke-width:0.5;"/>
      <text fill="#000000" font-family="sans-serif" font-size="14" lengthAdjust="spacing" textLength="131" x="1912.5" y="456.5332">UpdateEmailDialog.h</text>
    </g>
    <g id="elem_C_0004730930078247147942">
      <path d="M1689,434.5 L1689,467.1094 A2.5,2.5 0 0 0 1691.5,469.6094 L1864.5,469.6094 A2.5,2.5 0 0 0 1867,467.1094 L1867,442 L1857,432 L1691.5,432 A2.5,2.5 0 0 0 1689,434.5 " fill="#F1F1F1" style="stroke:#181818;stroke-width:0.5;"/>
      <path d="M1857,432 L1857,439.5 A2.5,2.5 0 0 0 1859.5,442 L1867,442 " fill="#F1F1F1" style="stroke:#181818;stroke-width:0.5;"/>
      <text fill="#000000" font-family="sans-serif" font-size="14" lengthAdjust="spacing" textLength="158" x="1699" y="456.5332">UpdatePasswordDialog.h</text>
    </g>
    <g id="elem_C_0000111696680446229526">
      <path d="M166,186.5 L166,219.1094 A2.5,2.5 0 0 0 168.5,221.6094 L295.5,221.6094 A2.5,2.5 0 0 0 298,219.1094 L298,194 L288,184 L168.5,184 A2.5,2.5 0 0 0 166,186.5 " fill="#F1F1F1" style="stroke:#181818;stroke-width:0.5;"/>
      <path d="M288,184 L288,191.5 A2.5,2.5 0 0 0 290.5,194 L298,194 " fill="#F1F1F1" style="stroke:#181818;stroke-width:0.5;"/>
      <text fill="#000000" font-family="sans-serif" font-size="14" lengthAdjust="spacing" textLength="112" x="176" y="208.5332">ClientHandler.cpp</text>
    </g>
    <g id="elem_C_0009648727152734889675">
      <path d="M180.5,320.5 L180.5,353.1094 A2.5,2.5 0 0 0 183,355.6094 L295,355.6094 A2.5,2.5 0 0 0 297.5,353.1094 L297.5,328 L287.5,318 L183,318 A2.5,2.5 0 0 0 180.5,320.5 " fill="#F1F1F1" style="stroke:#181818;stroke-width:0.5;"/>
      <path d="M287.5,318 L287.5,325.5 A2.5,2.5 0 0 0 290,328 L297.5,328 " fill="#F1F1F1" style="stroke:#181818;stroke-width:0.5;"/>
      <text fill="#000000" font-family="sans-serif" font-size="14" lengthAdjust="spacing" textLength="97" x="190.5" y="342.5332">ClientHandler.h</text>
    </g>
    <g id="elem_C_0010393880033178359530">
      <path d="M125,434.5 L125,467.1094 A2.5,2.5 0 0 0 127.5,469.6094 L206.5,469.6094 A2.5,2.5 0 0 0 209,467.1094 L209,442 L199,432 L127.5,432 A2.5,2.5 0 0 0 125,434.5 " fill="#F1F1F1" style="stroke:#181818;stroke-width:0.5;"/>
      <path d="M199,432 L199,439.5 A2.5,2.5 0 0 0 201.5,442 L209,442 " fill="#F1F1F1" style="stroke:#181818;stroke-width:0.5;"/>
      <text fill="#000000" font-family="sans-serif" font-size="14" lengthAdjust="spacing" textLength="64" x="135" y="456.5332">tcpclient.h</text>
    </g>
    <g id="elem_C_0015098463031054547511">
      <path d="M46.5,320.5 L46.5,353.1094 A2.5,2.5 0 0 0 49,355.6094 L143,355.6094 A2.5,2.5 0 0 0 145.5,353.1094 L145.5,328 L135.5,318 L49,318 A2.5,2.5 0 0 0 46.5,320.5 " fill="#F1F1F1" style="stroke:#181818;stroke-width:0.5;"/>
      <path d="M135.5,318 L135.5,325.5 A2.5,2.5 0 0 0 138,328 L145.5,328 " fill="#F1F1F1" style="stroke:#181818;stroke-width:0.5;"/>
      <text fill="#000000" font-family="sans-serif" font-size="14" lengthAdjust="spacing" textLength="79" x="56.5" y="342.5332">tcpclient.cpp</text>
    </g>
    <g id="elem_C_0001125553280068348594">
      <path d="M354,88.5 L354,121.1094 A2.5,2.5 0 0 0 356.5,123.6094 L479.5,123.6094 A2.5,2.5 0 0 0 482,121.1094 L482,96 L472,86 L356.5,86 A2.5,2.5 0 0 0 354,88.5 " fill="#F1F1F1" style="stroke:#181818;stroke-width:0.5;"/>
      <path d="M472,86 L472,93.5 A2.5,2.5 0 0 0 474.5,96 L482,96 " fill="#F1F1F1" style="stroke:#181818;stroke-width:0.5;"/>
      <text fill="#000000" font-family="sans-serif" font-size="14" lengthAdjust="spacing" textLength="108" x="364" y="110.5332">AppManager.cpp</text>
    </g>
    <g id="elem_C_0011700575639516634919">
      <path d="M354.5,186.5 L354.5,219.1094 A2.5,2.5 0 0 0 357,221.6094 L465,221.6094 A2.5,2.5 0 0 0 467.5,219.1094 L467.5,194 L457.5,184 L357,184 A2.5,2.5 0 0 0 354.5,186.5 " fill="#F1F1F1" style="stroke:#181818;stroke-width:0.5;"/>
      <path d="M457.5,184 L457.5,191.5 A2.5,2.5 0 0 0 460,194 L467.5,194 " fill="#F1F1F1" style="stroke:#181818;stroke-width:0.5;"/>
      <text fill="#000000" font-family="sans-serif" font-size="14" lengthAdjust="spacing" textLength="93" x="364.5" y="208.5332">AppManager.h</text>
    </g>
    <g id="elem_C_0012805618584828466530">
      <path d="M518,320.5 L518,353.1094 A2.5,2.5 0 0 0 520.5,355.6094 L615.5,355.6094 A2.5,2.5 0 0 0 618,353.1094 L618,328 L608,318 L520.5,318 A2.5,2.5 0 0 0 518,320.5 " fill="#F1F1F1" style="stroke:#181818;stroke-width:0.5;"/>
      <path d="M608,318 L608,325.5 A2.5,2.5 0 0 0 610.5,328 L618,328 " fill="#F1F1F1" style="stroke:#181818;stroke-width:0.5;"/>
      <text fill="#000000" font-family="sans-serif" font-size="14" lengthAdjust="spacing" textLength="80" x="528" y="342.5332">UIManager.h</text>
    </g>
    <g id="elem_C_0016387530051960150143">
      <path d="M502.5,186.5 L502.5,219.1094 A2.5,2.5 0 0 0 505,221.6094 L615,221.6094 A2.5,2.5 0 0 0 617.5,219.1094 L617.5,194 L607.5,184 L505,184 A2.5,2.5 0 0 0 502.5,186.5 " fill="#F1F1F1" style="stroke:#181818;stroke-width:0.5;"/>
      <path d="M607.5,184 L607.5,191.5 A2.5,2.5 0 0 0 610,194 L617.5,194 " fill="#F1F1F1" style="stroke:#181818;stroke-width:0.5;"/>
      <text fill="#000000" font-family="sans-serif" font-size="14" lengthAdjust="spacing" textLength="95" x="512.5" y="208.5332">UIManager.cpp</text>
    </g>
    <g id="link_C_0008309121906808763839_C_0004140566297497285282">
      <path d="M1113,356.49 C1113,377.37 1113,405.12 1113,425.85 " fill="none" id="C_0008309121906808763839-to-C_0004140566297497285282" style="stroke:#181818;stroke-width:1.0;"/>
      <polygon fill="#181818" points="1113,431.85,1117,422.85,1113,426.85,1109,422.85,1113,431.85" style="stroke:#181818;stroke-width:1.0;"/>
    </g>
    <g id="link_C_0008309121906808763839_C_0001470670052551214060">
      <path d="M1178.25,339.37 C1380.28,343.89 1987.01,359.69 2071,388 C2098.35,397.22 2120.535,413.2363 2137.875,428.0263 " fill="none" id="C_0008309121906808763839-to-C_0001470670052551214060" style="stroke:#181818;stroke-width:1.0;"/>
      <polygon fill="#181818" points="2142.44,431.92,2138.1883,423.0361,2138.6358,428.6753,2132.9967,429.1228,2142.44,431.92" style="stroke:#181818;stroke-width:1.0;"/>
    </g>
    <g id="link_C_0008309121906808763839_C_0012440556589828314473">
      <path d="M1178.01,338.74 C1404.59,341.61 2151.31,353.61 2253,388 C2279.94,397.11 2301.5488,413.0841 2318.4488,427.9041 " fill="none" id="C_0008309121906808763839-to-C_0012440556589828314473" style="stroke:#181818;stroke-width:1.0;"/>
      <polygon fill="#181818" points="2322.96,431.86,2318.8306,422.9187,2319.2007,428.5634,2313.556,428.9335,2322.96,431.86" style="stroke:#181818;stroke-width:1.0;"/>
    </g>
    <g id="link_C_0008309121906808763839_C_0017300576026206201541">
      <path d="M1178.07,337.91 C1339.52,338.37 1754.84,343.95 1885,388 C1912.57,397.33 1935.1347,413.1881 1952.9247,427.8881 " fill="none" id="C_0008309121906808763839-to-C_0017300576026206201541" style="stroke:#181818;stroke-width:1.0;"/>
      <polygon fill="#181818" points="1957.55,431.71,1953.16,422.8936,1953.6956,428.5251,1948.0642,429.0607,1957.55,431.71" style="stroke:#181818;stroke-width:1.0;"/>
    </g>
    <g id="link_C_0008309121906808763839_C_0004730930078247147942">
      <path d="M1178.36,340.69 C1303.64,346.39 1573.06,361.38 1662,388 C1694.81,397.82 1723.9499,414.1802 1746.6299,428.7302 " fill="none" id="C_0008309121906808763839-to-C_0004730930078247147942" style="stroke:#181818;stroke-width:1.0;"/>
      <polygon fill="#181818" points="1751.68,431.97,1746.2647,423.7435,1747.4716,429.2702,1741.945,430.477,1751.68,431.97" style="stroke:#181818;stroke-width:1.0;"/>
    </g>
    <g id="link_C_0004140566297497285282_C_0004662975987075955962">
      <path d="M1134,470.21 C1152.18,485.09 1179.77,505.62 1207,518 C1223.08,525.31 1235.3827,529.5305 1252.6427,533.8905 " fill="none" id="C_0004140566297497285282-to-C_0004662975987075955962" style="stroke:#181818;stroke-width:1.0;"/>
      <polygon fill="#181818" points="1258.46,535.36,1250.7138,529.2776,1253.6123,534.1354,1248.7544,537.034,1258.46,535.36" style="stroke:#181818;stroke-width:1.0;"/>
    </g>
    <g id="link_C_0012950180607479447001_C_0000372268219133550912">
      <path d="M932,356.49 C932,377.37 932,405.12 932,425.85 " fill="none" id="C_0012950180607479447001-to-C_0000372268219133550912" style="stroke:#181818;stroke-width:1.0;"/>
      <polygon fill="#181818" points="932,431.85,936,422.85,932,426.85,928,422.85,932,431.85" style="stroke:#181818;stroke-width:1.0;"/>
    </g>
    <g id="link_C_0012950180607479447001_C_0017300576026206201541">
      <path d="M965.65,356 C984.57,365.12 1008.95,375.24 1032,380 C1078.41,389.58 1839.71,374.05 1885,388 C1913.19,396.68 1936.1137,413.0296 1953.8037,428.0296 " fill="none" id="C_0012950180607479447001-to-C_0017300576026206201541" style="stroke:#181818;stroke-width:1.0;"/>
      <polygon fill="#181818" points="1958.38,431.91,1954.1025,423.0385,1954.5664,428.6763,1948.9286,429.1403,1958.38,431.91" style="stroke:#181818;stroke-width:1.0;"/>
    </g>
    <g id="link_C_0012950180607479447001_C_0004730930078247147942">
      <path d="M966.11,356.19 C984.96,365.24 1009.14,375.24 1032,380 C1100.54,394.26 1594.2,370.56 1662,388 C1695.61,396.65 1725.2163,413.5538 1747.7663,428.5738 " fill="none" id="C_0012950180607479447001-to-C_0004730930078247147942" style="stroke:#181818;stroke-width:1.0;"/>
      <polygon fill="#181818" points="1752.76,431.9,1747.4869,423.5817,1748.5986,429.1282,1743.0521,430.2399,1752.76,431.9" style="stroke:#181818;stroke-width:1.0;"/>
    </g>
    <g id="link_C_0012950180607479447001_C_0011846255136749913892">
      <path d="M966.11,356.18 C984.97,365.23 1009.14,375.24 1032,380 C1048.34,383.41 1619.67,377.94 1633,388 C1681.16,424.33 1630.15,474.55 1672,518 C1752.29,601.36 1883.0729,629.7235 1967.3729,639.8635 " fill="none" id="C_0012950180607479447001-to-C_0011846255136749913892" style="stroke:#181818;stroke-width:1.0;"/>
      <polygon fill="#181818" points="1973.33,640.58,1964.8721,635.5338,1968.3658,639.9829,1963.9167,643.4766,1973.33,640.58" style="stroke:#181818;stroke-width:1.0;"/>
    </g>
    <g id="link_C_0000372268219133550912_C_0004662975987075955962">
      <path d="M952.98,470.27 C972.15,485.84 1002.02,507.33 1032,518 C1072.28,532.34 1178.0291,540.3296 1252.3691,544.4296 " fill="none" id="C_0000372268219133550912-to-C_0004662975987075955962" style="stroke:#181818;stroke-width:1.0;"/>
      <polygon fill="#181818" points="1258.36,544.76,1249.5939,540.2705,1253.3676,544.4847,1249.1534,548.2583,1258.36,544.76" style="stroke:#181818;stroke-width:1.0;"/>
    </g>
    <g id="link_C_0008799684567918779338_C_0004662975987075955962">
      <path d="M777.27,470.24 C796.16,486.01 825.86,507.82 856,518 C928.4,542.45 1138.7601,547.1687 1252.0501,547.9487 " fill="none" id="C_0008799684567918779338-to-C_0004662975987075955962" style="stroke:#181818;stroke-width:1.0;"/>
      <polygon fill="#181818" points="1258.05,547.99,1249.0778,543.9281,1253.0501,547.9556,1249.0227,551.9279,1258.05,547.99" style="stroke:#181818;stroke-width:1.0;"/>
    </g>
    <g id="link_C_0009177402481112612119_C_0008799684567918779338">
      <path d="M757,356.49 C757,377.37 757,405.12 757,425.85 " fill="none" id="C_0009177402481112612119-to-C_0008799684567918779338" style="stroke:#181818;stroke-width:1.0;"/>
      <polygon fill="#181818" points="757,431.85,761,422.85,757,426.85,753,422.85,757,431.85" style="stroke:#181818;stroke-width:1.0;"/>
    </g>
    <g id="link_C_0009177402481112612119_C_0004662975987075955962">
      <path d="M790.77,356.09 C809.43,365.11 833.37,375.12 856,380 C874.36,383.96 1178.75,377.03 1194,388 C1243.87,423.89 1197.16,474.96 1241,518 C1246.07,522.98 1246.7233,524.2557 1253.0633,527.7157 " fill="none" id="C_0009177402481112612119-to-C_0004662975987075955962" style="stroke:#181818;stroke-width:1.0;"/>
      <polygon fill="#181818" points="1258.33,530.59,1252.3461,522.7674,1253.9411,528.1948,1248.5137,529.7897,1258.33,530.59" style="stroke:#181818;stroke-width:1.0;"/>
    </g>
    <g id="link_C_0003243005645601454693_C_0015076305304167085100">
      <path d="M1530.93,470.06 C1528.98,487.11 1526.7417,506.5988 1524.7817,523.7388 " fill="none" id="C_0003243005645601454693-to-C_0015076305304167085100" style="stroke:#181818;stroke-width:1.0;"/>
      <polygon fill="#181818" points="1524.1,529.7,1529.0966,521.2127,1524.6681,524.7324,1521.1484,520.3038,1524.1,529.7" style="stroke:#181818;stroke-width:1.0;"/>
    </g>
    <g id="link_C_0015680580263724453319_C_0004662975987075955962">
      <path d="M1334.68,470.06 C1333.44,487.11 1332.0164,506.5759 1330.7664,523.7159 " fill="none" id="C_0015680580263724453319-to-C_0004662975987075955962" style="stroke:#181818;stroke-width:1.0;"/>
      <polygon fill="#181818" points="1330.33,529.7,1334.974,521.0148,1330.6937,524.7132,1326.9952,520.4329,1330.33,529.7" style="stroke:#181818;stroke-width:1.0;"/>
    </g>
    <g id="link_C_0001470670052551214060_C_0006158485752258116163">
      <path d="M2140.37,470.06 C2119.94,487.11 2094.0558,508.7147 2073.5258,525.8547 " fill="none" id="C_0001470670052551214060-to-C_0006158485752258116163" style="stroke:#181818;stroke-width:1.0;"/>
      <polygon fill="#181818" points="2068.92,529.7,2078.3923,527.0026,2072.7582,526.4956,2073.2652,520.8615,2068.92,529.7" style="stroke:#181818;stroke-width:1.0;"/>
    </g>
    <g id="link_C_0006158485752258116163_C_0011846255136749913892">
      <path d="M2047,568.06 C2047,585.11 2047,604.56 2047,621.7 " fill="none" id="C_0006158485752258116163-to-C_0011846255136749913892" style="stroke:#181818;stroke-width:1.0;"/>
      <polygon fill="#181818" points="2047,627.7,2051,618.7,2047,622.7,2043,618.7,2047,627.7" style="stroke:#181818;stroke-width:1.0;"/>
    </g>
    <g id="link_C_0012440556589828314473_C_0006158485752258116163">
      <path d="M2323.58,470 C2306.68,485.39 2280.21,506.77 2253,518 C2203.39,538.47 2148.0127,544.9946 2105.2127,547.1046 " fill="none" id="C_0012440556589828314473-to-C_0006158485752258116163" style="stroke:#181818;stroke-width:1.0;"/>
      <polygon fill="#181818" points="2099.22,547.4,2108.406,550.952,2104.2139,547.1538,2108.0121,542.9617,2099.22,547.4" style="stroke:#181818;stroke-width:1.0;"/>
    </g>
    <g id="link_C_0012440556589828314473_C_0011846255136749913892">
      <path d="M2318.58,470.19 C2300.85,483.75 2275.75,502.54 2253,518 C2192.24,559.31 2123.7621,600.7118 2083.0321,624.8418 " fill="none" id="C_0012440556589828314473-to-C_0011846255136749913892" style="stroke:#181818;stroke-width:1.0;"/>
      <polygon fill="#181818" points="2077.87,627.9,2087.652,626.7541,2082.1717,625.3515,2083.5743,619.8713,2077.87,627.9" style="stroke:#181818;stroke-width:1.0;"/>
    </g>
    <g id="link_C_0017300576026206201541_C_0006158485752258116163">
      <path d="M1990.98,470.06 C2003.24,487.11 2018.0281,507.688 2030.3481,524.828 " fill="none" id="C_0017300576026206201541-to-C_0006158485752258116163" style="stroke:#181818;stroke-width:1.0;"/>
      <polygon fill="#181818" points="2033.85,529.7,2031.8451,520.0574,2030.9317,525.64,2025.3491,524.7266,2033.85,529.7" style="stroke:#181818;stroke-width:1.0;"/>
    </g>
    <g id="link_C_0004730930078247147942_C_0006158485752258116163">
      <path d="M1801.72,470.22 C1822.55,485.31 1854.25,506.15 1885,518 C1920.36,531.63 1956.5678,538.4341 1989.0078,542.5541 " fill="none" id="C_0004730930078247147942-to-C_0006158485752258116163" style="stroke:#181818;stroke-width:1.0;"/>
      <polygon fill="#181818" points="1994.96,543.31,1986.5357,538.2079,1989.9998,542.68,1985.5278,546.1442,1994.96,543.31" style="stroke:#181818;stroke-width:1.0;"/>
    </g>
    <g id="link_C_0000111696680446229526_C_0009648727152734889675">
      <path d="M232.96,222.08 C234.29,247.21 236.372,286.4784 237.712,311.7284 " fill="none" id="C_0000111696680446229526-to-C_0009648727152734889675" style="stroke:#181818;stroke-width:1.0;"/>
      <polygon fill="#181818" points="238.03,317.72,241.5474,308.5207,237.765,312.727,233.5587,308.9446,238.03,317.72" style="stroke:#181818;stroke-width:1.0;"/>
    </g>
    <g id="link_C_0009648727152734889675_C_0010393880033178359530">
      <path d="M227.11,356.49 C213.69,377.37 195.2452,406.0733 181.9152,426.8033 " fill="none" id="C_0009648727152734889675-to-C_0010393880033178359530" style="stroke:#181818;stroke-width:1.0;"/>
      <polygon fill="#181818" points="178.67,431.85,186.9022,426.4434,181.3743,427.6444,180.1733,422.1165,178.67,431.85" style="stroke:#181818;stroke-width:1.0;"/>
    </g>
    <g id="link_C_0015098463031054547511_C_0010393880033178359530">
      <path d="M107.72,356.49 C120.96,377.37 139.1378,406.0523 152.2778,426.7823 " fill="none" id="C_0015098463031054547511-to-C_0010393880033178359530" style="stroke:#181818;stroke-width:1.0;"/>
      <polygon fill="#181818" points="155.49,431.85,154.0501,422.107,152.8131,427.6269,147.2932,426.3899,155.49,431.85" style="stroke:#181818;stroke-width:1.0;"/>
    </g>
    <g id="link_C_0001125553280068348594_C_0011700575639516634919">
      <path d="M416.68,124.06 C415.44,141.11 414.0164,160.5759 412.7664,177.7159 " fill="none" id="C_0001125553280068348594-to-C_0011700575639516634919" style="stroke:#181818;stroke-width:1.0;"/>
      <polygon fill="#181818" points="412.33,183.7,416.974,175.0148,412.6937,178.7132,408.9952,174.4329,412.33,183.7" style="stroke:#181818;stroke-width:1.0;"/>
    </g>
    <g id="link_C_0011700575639516634919_C_0012805618584828466530">
      <path d="M432.5,222.08 C462.48,247.28 511.937,288.8693 541.917,314.0693 " fill="none" id="C_0011700575639516634919-to-C_0012805618584828466530" style="stroke:#181818;stroke-width:1.0;"/>
      <polygon fill="#181818" points="546.51,317.93,542.1943,309.077,542.6825,314.7128,537.0468,315.201,546.51,317.93" style="stroke:#181818;stroke-width:1.0;"/>
    </g>
    <g id="link_C_0011700575639516634919_C_0009648727152734889675">
      <path d="M354.29,221.1 C348.6,223.72 343.06,226.68 338,230 C301.37,254.04 272.3444,289.5288 255.2344,312.8988 " fill="none" id="C_0011700575639516634919-to-C_0009648727152734889675" style="stroke:#181818;stroke-width:1.0;"/>
      <polygon fill="#181818" points="251.69,317.74,260.2341,312.8411,254.6437,313.7057,253.7792,308.1153,251.69,317.74" style="stroke:#181818;stroke-width:1.0;"/>
    </g>
    <g id="link_C_0012805618584828466530_C_0008799684567918779338">
      <path d="M598.79,356.24 C634.04,377.13 686.2685,408.0807 721.3785,428.8907 " fill="none" id="C_0012805618584828466530-to-C_0008799684567918779338" style="stroke:#181818;stroke-width:1.0;"/>
      <polygon fill="#181818" points="726.54,431.95,720.8373,423.9201,722.2388,429.4006,716.7583,430.8021,726.54,431.95" style="stroke:#181818;stroke-width:1.0;"/>
    </g>
    <g id="link_C_0012805618584828466530_C_0004140566297497285282">
      <path d="M607.18,356.07 C628.76,365.08 656.31,375.09 682,380 C753.18,393.6 938.34,368.05 1008,388 C1038.73,396.8 1064.9079,413.2332 1085.1779,428.1532 " fill="none" id="C_0012805618584828466530-to-C_0004140566297497285282" style="stroke:#181818;stroke-width:1.0;"/>
      <polygon fill="#181818" points="1090.01,431.71,1085.133,423.1534,1085.9832,428.746,1080.3906,429.5963,1090.01,431.71" style="stroke:#181818;stroke-width:1.0;"/>
    </g>
    <g id="link_C_0012805618584828466530_C_0000372268219133550912">
      <path d="M608.03,356.1 C629.5,364.95 656.69,374.79 682,380 C714.69,386.73 800.15,378 832,388 C861.43,397.24 886.1709,413.496 905.4209,428.276 " fill="none" id="C_0012805618584828466530-to-C_0000372268219133550912" style="stroke:#181818;stroke-width:1.0;"/>
      <polygon fill="#181818" points="910.18,431.93,905.4774,423.2764,906.2141,428.885,900.6054,429.6218,910.18,431.93" style="stroke:#181818;stroke-width:1.0;"/>
    </g>
    <g id="link_C_0012805618584828466530_C_0004662975987075955962">
      <path d="M567.3,356.28 C566.99,393.69 572.21,478.72 623,518 C647.84,537.21 1078.5605,544.8006 1252.4305,547.1006 " fill="none" id="C_0012805618584828466530-to-C_0004662975987075955962" style="stroke:#181818;stroke-width:1.0;"/>
      <polygon fill="#181818" points="1258.43,547.18,1249.4837,543.0613,1253.4304,547.1139,1249.3779,551.0606,1258.43,547.18" style="stroke:#181818;stroke-width:1.0;"/>
    </g>
    <g id="link_C_0012805618584828466530_C_0015076305304167085100">
      <path d="M581.71,356.26 C588.59,365.62 596.94,377.28 604,388 C641.05,444.28 623.64,484.32 682,518 C699.69,528.21 1396.67,528.1 1417,530 C1426.39,530.88 1430.2733,531.2509 1439.9733,532.6709 " fill="none" id="C_0012805618584828466530-to-C_0015076305304167085100" style="stroke:#181818;stroke-width:1.0;"/>
      <polygon fill="#181818" points="1445.91,533.54,1437.5843,528.2786,1440.9627,532.8158,1436.4255,536.1942,1445.91,533.54" style="stroke:#181818;stroke-width:1.0;"/>
    </g>
    <g id="link_C_0016387530051960150143_C_0012805618584828466530">
      <path d="M561.1,222.08 C562.62,247.21 564.9971,286.481 566.5271,311.731 " fill="none" id="C_0016387530051960150143-to-C_0012805618584828466530" style="stroke:#181818;stroke-width:1.0;"/>
      <polygon fill="#181818" points="566.89,317.72,570.3383,308.4945,566.5876,312.7292,562.353,308.9784,566.89,317.72" style="stroke:#181818;stroke-width:1.0;"/>
    </g>
  </g>
</svg>
