<svg xmlns="http://www.w3.org/2000/svg" xmlns:xlink="http://www.w3.org/1999/xlink" contentStyleType="text/css" height="601px" preserveAspectRatio="none" style="width:1027px;height:601px;background:#FFFFFF;" version="1.1" viewBox="0 0 1027 601" width="1027px" zoomAndPan="magnify">
  <defs>
    <style type="text/css">a:hover { text-decoration: underline; }</style>
  </defs>
  <g>
    <rect fill="#FFFFFF" height="476.5156" style="stroke:#181818;stroke-width:1.0;" width="10" x="157" y="69.9609"/>
    <rect fill="#FFFFFF" height="385.8125" style="stroke:#181818;stroke-width:1.0;" width="10" x="318" y="100.3125"/>
    <rect fill="#FFFFFF" height="341.4609" style="stroke:#181818;stroke-width:1.0;" width="10" x="323" y="138.6641"/>
    <rect fill="#FFFFFF" height="120.0547" style="stroke:#181818;stroke-width:1.0;" width="10" x="328" y="360.0703"/>
    <rect fill="#FFFFFF" height="30" style="stroke:#181818;stroke-width:1.0;" width="10" x="525" y="174.0156"/>
    <rect fill="#FFFFFF" height="87.3516" style="stroke:#181818;stroke-width:1.0;" width="10" x="663.5" y="234.3672"/>
    <rect fill="#FFFFFF" height="28" style="stroke:#181818;stroke-width:1.0;" width="10" x="668.5" y="272.7188"/>
    <rect fill="#FFFFFF" height="14" style="stroke:#181818;stroke-width:1.0;" width="10" x="663.5" y="451.125"/>
    <rect fill="#FFFFFF" height="44.3516" style="stroke:#181818;stroke-width:1.0;" width="10" x="860.5" y="420.7734"/>
    <rect fill="#FFFFFF" height="30" style="stroke:#181818;stroke-width:1.0;" width="10" x="966.5" y="516.4766"/>
    <rect fill="none" height="93.0547" style="stroke:#000000;stroke-width:1.5;" width="650" x="272" y="380.0703"/>
    <line style="stroke:#181818;stroke-width:0.5;stroke-dasharray:5.0,5.0;" x1="161.5" x2="161.5" y1="37.6094" y2="564.4766"/>
    <line style="stroke:#181818;stroke-width:0.5;stroke-dasharray:5.0,5.0;" x1="323" x2="323" y1="37.6094" y2="564.4766"/>
    <line style="stroke:#181818;stroke-width:0.5;stroke-dasharray:5.0,5.0;" x1="530" x2="530" y1="37.6094" y2="564.4766"/>
    <line style="stroke:#181818;stroke-width:0.5;stroke-dasharray:5.0,5.0;" x1="668" x2="668" y1="37.6094" y2="564.4766"/>
    <line style="stroke:#181818;stroke-width:0.5;stroke-dasharray:5.0,5.0;" x1="865" x2="865" y1="37.6094" y2="564.4766"/>
    <line style="stroke:#181818;stroke-width:0.5;stroke-dasharray:5.0,5.0;" x1="971" x2="971" y1="37.6094" y2="564.4766"/>
    <rect fill="#E2E2F0" height="31.6094" rx="2.5" ry="2.5" style="stroke:#181818;stroke-width:0.5;" width="95" x="114.5" y="5"/>
    <text fill="#000000" font-family="sans-serif" font-size="14" lengthAdjust="spacing" textLength="81" x="121.5" y="26.5332">AppManager</text>
    <rect fill="#E2E2F0" height="31.6094" rx="2.5" ry="2.5" style="stroke:#181818;stroke-width:0.5;" width="95" x="114.5" y="563.4766"/>
    <text fill="#000000" font-family="sans-serif" font-size="14" lengthAdjust="spacing" textLength="81" x="121.5" y="585.0098">AppManager</text>
    <rect fill="#E2E2F0" height="31.6094" rx="2.5" ry="2.5" style="stroke:#181818;stroke-width:0.5;" width="82" x="282" y="5"/>
    <text fill="#000000" font-family="sans-serif" font-size="14" lengthAdjust="spacing" textLength="68" x="289" y="26.5332">UIManager</text>
    <rect fill="#E2E2F0" height="31.6094" rx="2.5" ry="2.5" style="stroke:#181818;stroke-width:0.5;" width="82" x="282" y="563.4766"/>
    <text fill="#000000" font-family="sans-serif" font-size="14" lengthAdjust="spacing" textLength="68" x="289" y="585.0098">UIManager</text>
    <rect fill="#E2E2F0" height="31.6094" rx="2.5" ry="2.5" style="stroke:#181818;stroke-width:0.5;" width="134" x="463" y="5"/>
    <text fill="#000000" font-family="sans-serif" font-size="14" lengthAdjust="spacing" textLength="120" x="470" y="26.5332">ResponseManager</text>
    <rect fill="#E2E2F0" height="31.6094" rx="2.5" ry="2.5" style="stroke:#181818;stroke-width:0.5;" width="134" x="463" y="563.4766"/>
    <text fill="#000000" font-family="sans-serif" font-size="14" lengthAdjust="spacing" textLength="120" x="470" y="585.0098">ResponseManager</text>
    <rect fill="#E2E2F0" height="31.6094" rx="2.5" ry="2.5" style="stroke:#181818;stroke-width:0.5;" width="123" x="607" y="5"/>
    <text fill="#000000" font-family="sans-serif" font-size="14" lengthAdjust="spacing" textLength="109" x="614" y="26.5332">RequestManager</text>
    <rect fill="#E2E2F0" height="31.6094" rx="2.5" ry="2.5" style="stroke:#181818;stroke-width:0.5;" width="123" x="607" y="563.4766"/>
    <text fill="#000000" font-family="sans-serif" font-size="14" lengthAdjust="spacing" textLength="109" x="614" y="585.0098">RequestManager</text>
    <rect fill="#E2E2F0" height="31.6094" rx="2.5" ry="2.5" style="stroke:#181818;stroke-width:0.5;" width="93" x="819" y="5"/>
    <text fill="#000000" font-family="sans-serif" font-size="14" lengthAdjust="spacing" textLength="79" x="826" y="26.5332">LoginWidget</text>
    <rect fill="#E2E2F0" height="31.6094" rx="2.5" ry="2.5" style="stroke:#181818;stroke-width:0.5;" width="93" x="819" y="563.4766"/>
    <text fill="#000000" font-family="sans-serif" font-size="14" lengthAdjust="spacing" textLength="79" x="826" y="585.0098">LoginWidget</text>
    <rect fill="#E2E2F0" height="31.6094" rx="2.5" ry="2.5" style="stroke:#181818;stroke-width:0.5;" width="99" x="922" y="5"/>
    <text fill="#000000" font-family="sans-serif" font-size="14" lengthAdjust="spacing" textLength="85" x="929" y="26.5332">ClientHandler</text>
    <rect fill="#E2E2F0" height="31.6094" rx="2.5" ry="2.5" style="stroke:#181818;stroke-width:0.5;" width="99" x="922" y="563.4766"/>
    <text fill="#000000" font-family="sans-serif" font-size="14" lengthAdjust="spacing" textLength="85" x="929" y="585.0098">ClientHandler</text>
    <rect fill="#FFFFFF" height="476.5156" style="stroke:#181818;stroke-width:1.0;" width="10" x="157" y="69.9609"/>
    <rect fill="#FFFFFF" height="385.8125" style="stroke:#181818;stroke-width:1.0;" width="10" x="318" y="100.3125"/>
    <rect fill="#FFFFFF" height="341.4609" style="stroke:#181818;stroke-width:1.0;" width="10" x="323" y="138.6641"/>
    <rect fill="#FFFFFF" height="120.0547" style="stroke:#181818;stroke-width:1.0;" width="10" x="328" y="360.0703"/>
    <rect fill="#FFFFFF" height="30" style="stroke:#181818;stroke-width:1.0;" width="10" x="525" y="174.0156"/>
    <rect fill="#FFFFFF" height="87.3516" style="stroke:#181818;stroke-width:1.0;" width="10" x="663.5" y="234.3672"/>
    <rect fill="#FFFFFF" height="28" style="stroke:#181818;stroke-width:1.0;" width="10" x="668.5" y="272.7188"/>
    <rect fill="#FFFFFF" height="14" style="stroke:#181818;stroke-width:1.0;" width="10" x="663.5" y="451.125"/>
    <rect fill="#FFFFFF" height="44.3516" style="stroke:#181818;stroke-width:1.0;" width="10" x="860.5" y="420.7734"/>
    <rect fill="#FFFFFF" height="30" style="stroke:#181818;stroke-width:1.0;" width="10" x="966.5" y="516.4766"/>
    <polygon fill="#181818" points="145,65.9609,155,69.9609,145,73.9609,149,69.9609" style="stroke:#181818;stroke-width:1.0;"/>
    <line style="stroke:#181818;stroke-width:1.0;" x1="0" x2="151" y1="69.9609" y2="69.9609"/>
    <text fill="#000000" font-family="sans-serif" font-size="13" lengthAdjust="spacing" textLength="138" x="7" y="65.1045">AppManager(QObject *)</text>
    <polygon fill="#181818" points="306,96.3125,316,100.3125,306,104.3125,310,100.3125" style="stroke:#181818;stroke-width:1.0;"/>
    <line style="stroke:#181818;stroke-width:1.0;" x1="167" x2="312" y1="100.3125" y2="100.3125"/>
    <text fill="#000000" font-family="sans-serif" font-size="13" lengthAdjust="spacing" text-decoration="underline" textLength="132" x="174" y="95.4561">getInstance(QObject *)</text>
    <line style="stroke:#181818;stroke-width:1.0;" x1="328" x2="375" y1="125.6641" y2="125.6641"/>
    <line style="stroke:#181818;stroke-width:1.0;" x1="375" x2="375" y1="125.6641" y2="138.6641"/>
    <line style="stroke:#181818;stroke-width:1.0;" x1="334" x2="375" y1="138.6641" y2="138.6641"/>
    <polygon fill="#181818" points="344,134.6641,334,138.6641,344,142.6641,340,138.6641" style="stroke:#181818;stroke-width:1.0;"/>
    <text fill="#000000" font-family="sans-serif" font-size="13" lengthAdjust="spacing" textLength="127" x="340" y="120.8076">UIManager(QObject *)</text>
    <polygon fill="#181818" points="513,170.0156,523,174.0156,513,178.0156,517,174.0156" style="stroke:#181818;stroke-width:1.0;"/>
    <line style="stroke:#181818;stroke-width:1.0;" x1="333" x2="519" y1="174.0156" y2="174.0156"/>
    <text fill="#000000" font-family="sans-serif" font-size="13" lengthAdjust="spacing" textLength="173" x="340" y="169.1592">ResponseManager(QObject *)</text>
    <polygon fill="#181818" points="651.5,230.3672,661.5,234.3672,651.5,238.3672,655.5,234.3672" style="stroke:#181818;stroke-width:1.0;"/>
    <line style="stroke:#181818;stroke-width:1.0;" x1="333" x2="657.5" y1="234.3672" y2="234.3672"/>
    <text fill="#000000" font-family="sans-serif" font-size="13" lengthAdjust="spacing" text-decoration="underline" textLength="132" x="340" y="229.5107">getInstance(QObject *)</text>
    <line style="stroke:#181818;stroke-width:1.0;" x1="678.5" x2="720.5" y1="264.7188" y2="264.7188"/>
    <line style="stroke:#181818;stroke-width:1.0;" x1="720.5" x2="720.5" y1="264.7188" y2="277.7188"/>
    <line style="stroke:#181818;stroke-width:1.0;" x1="679.5" x2="720.5" y1="277.7188" y2="277.7188"/>
    <polygon fill="#181818" points="689.5,273.7188,679.5,277.7188,689.5,281.7188,685.5,277.7188" style="stroke:#181818;stroke-width:1.0;"/>
    <text fill="#000000" font-family="sans-serif" font-size="13" lengthAdjust="spacing" textLength="163" x="685.5" y="259.8623">RequestManager(QObject *)</text>
    <polygon fill="#181818" points="344,317.7188,334,321.7188,344,325.7188,340,321.7188" style="stroke:#181818;stroke-width:1.0;"/>
    <line style="stroke:#181818;stroke-width:1.0;stroke-dasharray:2.0,2.0;" x1="338" x2="667.5" y1="321.7188" y2="321.7188"/>
    <line style="stroke:#181818;stroke-width:1.0;" x1="333" x2="380" y1="347.0703" y2="347.0703"/>
    <line style="stroke:#181818;stroke-width:1.0;" x1="380" x2="380" y1="347.0703" y2="360.0703"/>
    <line style="stroke:#181818;stroke-width:1.0;" x1="339" x2="380" y1="360.0703" y2="360.0703"/>
    <polygon fill="#181818" points="349,356.0703,339,360.0703,349,364.0703,345,360.0703" style="stroke:#181818;stroke-width:1.0;"/>
    <text fill="#000000" font-family="sans-serif" font-size="13" lengthAdjust="spacing" textLength="116" x="345" y="342.2139">createLoginWidget()</text>
    <path d="M272,380.0703 L333,380.0703 L333,388.4219 L323,398.4219 L272,398.4219 L272,380.0703 " fill="#EEEEEE" style="stroke:#000000;stroke-width:1.5;"/>
    <rect fill="none" height="93.0547" style="stroke:#000000;stroke-width:1.5;" width="650" x="272" y="380.0703"/>
    <text fill="#000000" font-family="sans-serif" font-size="13" font-weight="bold" lengthAdjust="spacing" textLength="16" x="287" y="394.5654">alt</text>
    <polygon fill="#181818" points="848.5,416.7734,858.5,420.7734,848.5,424.7734,852.5,420.7734" style="stroke:#181818;stroke-width:1.0;"/>
    <line style="stroke:#181818;stroke-width:1.0;" x1="338" x2="854.5" y1="420.7734" y2="420.7734"/>
    <text fill="#000000" font-family="sans-serif" font-size="13" lengthAdjust="spacing" textLength="140" x="345" y="415.917">LoginWidget(QWidget *)</text>
    <polygon fill="#181818" points="684.5,447.125,674.5,451.125,684.5,455.125,680.5,451.125" style="stroke:#181818;stroke-width:1.0;"/>
    <line style="stroke:#181818;stroke-width:1.0;" x1="678.5" x2="859.5" y1="451.125" y2="451.125"/>
    <text fill="#000000" font-family="sans-serif" font-size="13" lengthAdjust="spacing" text-decoration="underline" textLength="132" x="690.5" y="446.2686">getInstance(QObject *)</text>
    <polygon fill="#181818" points="853.5,461.125,863.5,465.125,853.5,469.125,857.5,465.125" style="stroke:#181818;stroke-width:1.0;"/>
    <line style="stroke:#181818;stroke-width:1.0;stroke-dasharray:2.0,2.0;" x1="668.5" x2="859.5" y1="465.125" y2="465.125"/>
    <polygon fill="#181818" points="178,482.125,168,486.125,178,490.125,174,486.125" style="stroke:#181818;stroke-width:1.0;"/>
    <line style="stroke:#181818;stroke-width:1.0;stroke-dasharray:2.0,2.0;" x1="172" x2="322" y1="486.125" y2="486.125"/>
    <polygon fill="#181818" points="954.5,512.4766,964.5,516.4766,954.5,520.4766,958.5,516.4766" style="stroke:#181818;stroke-width:1.0;"/>
    <line style="stroke:#181818;stroke-width:1.0;" x1="167" x2="960.5" y1="516.4766" y2="516.4766"/>
    <text fill="#000000" font-family="sans-serif" font-size="13" lengthAdjust="spacing" textLength="142" x="174" y="511.6201">ClientHandler(QObject *)</text>
  </g>
</svg>
