<svg xmlns="http://www.w3.org/2000/svg" xmlns:xlink="http://www.w3.org/1999/xlink" contentStyleType="text/css" height="906px" preserveAspectRatio="none" style="width:2806px;height:906px;background:#FFFFFF;" version="1.1" viewBox="0 0 2806 906" width="2806px" zoomAndPan="magnify">
  <defs>
    <style type="text/css">a:hover { text-decoration: underline; }</style>
  </defs>
  <g>
    <text fill="#000000" font-family="sans-serif" font-size="14" font-weight="bold" lengthAdjust="spacing" textLength="522" x="1135" y="24.5332">TCP Client-Server Banking Application - Client State Diagram (Summarized)</text>
    <g id="cluster_Connected">
      <path d="M19.5,45.6094 L1948.5,45.6094 A12.5,12.5 0 0 1 1961,58.1094 L1961,68.2188 L7,68.2188 L7,58.1094 A12.5,12.5 0 0 1 19.5,45.6094 " fill="#F1F1F1" style="stroke:#F1F1F1;stroke-width:1.0;"/>
      <rect fill="none" height="733" rx="12.5" ry="12.5" style="stroke:#181818;stroke-width:0.5;" width="1954" x="7" y="45.6094"/>
      <line style="stroke:#181818;stroke-width:0.5;" x1="7" x2="1961" y1="68.2188" y2="68.2188"/>
      <text fill="#000000" font-family="sans-serif" font-size="14" lengthAdjust="spacing" textLength="69" x="949.5" y="64.1426">Connected</text>
    </g>
    <g id="cluster_User">
      <path d="M713.5,231.6094 L1547.5,231.6094 A12.5,12.5 0 0 1 1560,244.1094 L1560,254.2188 L701,254.2188 L701,244.1094 A12.5,12.5 0 0 1 713.5,231.6094 " fill="#F1F1F1" style="stroke:#F1F1F1;stroke-width:1.0;"/>
      <rect fill="none" height="507" rx="12.5" ry="12.5" style="stroke:#181818;stroke-width:0.5;" width="859" x="701" y="231.6094"/>
      <line style="stroke:#181818;stroke-width:0.5;" x1="701" x2="1560" y1="254.2188" y2="254.2188"/>
      <text fill="#000000" font-family="sans-serif" font-size="14" lengthAdjust="spacing" textLength="29" x="1116" y="250.1426">User</text>
    </g>
    <g id="cluster_Admin">
      <path d="M59.5,231.6094 L393.5,231.6094 A12.5,12.5 0 0 1 406,244.1094 L406,254.2188 L47,254.2188 L47,244.1094 A12.5,12.5 0 0 1 59.5,231.6094 " fill="#F1F1F1" style="stroke:#F1F1F1;stroke-width:1.0;"/>
      <rect fill="none" height="507" rx="12.5" ry="12.5" style="stroke:#181818;stroke-width:0.5;" width="359" x="47" y="231.6094"/>
      <line style="stroke:#181818;stroke-width:0.5;" x1="47" x2="406" y1="254.2188" y2="254.2188"/>
      <text fill="#000000" font-family="sans-serif" font-size="14" lengthAdjust="spacing" textLength="39" x="207" y="250.1426">Admin</text>
    </g>
    <ellipse cx="1733" cy="134.6094" fill="#222222" rx="10" ry="10" style="stroke:#222222;stroke-width:1.0;"/>
    <g id="Connected.Idle">
      <rect fill="#F1F1F1" height="50" rx="12.5" ry="12.5" style="stroke:#181818;stroke-width:0.5;" width="50" x="1782" y="280.6094"/>
      <line style="stroke:#181818;stroke-width:0.5;" x1="1782" x2="1832" y1="308.2188" y2="308.2188"/>
      <text fill="#000000" font-family="sans-serif" font-size="14" lengthAdjust="spacing" textLength="22" x="1796" y="300.1426">Idle</text>
    </g>
    <g id="Connected.HandlingRequest">
      <rect fill="#F1F1F1" height="50" rx="12.5" ry="12.5" style="stroke:#181818;stroke-width:0.5;" width="128" x="1703" y="408.6094"/>
      <line style="stroke:#181818;stroke-width:0.5;" x1="1703" x2="1831" y1="436.2188" y2="436.2188"/>
      <text fill="#000000" font-family="sans-serif" font-size="14" lengthAdjust="spacing" textLength="108" x="1713" y="428.1426">HandlingRequest</text>
    </g>
    <g id="Connected.HandlingResponse">
      <rect fill="#F1F1F1" height="50" rx="12.5" ry="12.5" style="stroke:#181818;stroke-width:0.5;" width="139" x="1778.5" y="109.6094"/>
      <line style="stroke:#181818;stroke-width:0.5;" x1="1778.5" x2="1917.5" y1="137.2188" y2="137.2188"/>
      <text fill="#000000" font-family="sans-serif" font-size="14" lengthAdjust="spacing" textLength="119" x="1788.5" y="129.1426">HandlingResponse</text>
    </g>
    <ellipse cx="1163" cy="305.6094" fill="#222222" rx="10" ry="10" style="stroke:#222222;stroke-width:1.0;"/>
    <g id="Connected.User.ViewingHome">
      <rect fill="#F1F1F1" height="50" rx="12.5" ry="12.5" style="stroke:#181818;stroke-width:0.5;" width="104" x="1111" y="408.6094"/>
      <line style="stroke:#181818;stroke-width:0.5;" x1="1111" x2="1215" y1="436.2188" y2="436.2188"/>
      <text fill="#000000" font-family="sans-serif" font-size="14" lengthAdjust="spacing" textLength="84" x="1121" y="428.1426">ViewingHome</text>
    </g>
    <g id="Connected.User.ViewingTransfer">
      <rect fill="#F1F1F1" height="50" rx="12.5" ry="12.5" style="stroke:#181818;stroke-width:0.5;" width="122" x="1277" y="536.6094"/>
      <line style="stroke:#181818;stroke-width:0.5;" x1="1277" x2="1399" y1="564.2188" y2="564.2188"/>
      <text fill="#000000" font-family="sans-serif" font-size="14" lengthAdjust="spacing" textLength="102" x="1287" y="556.1426">ViewingTransfer</text>
    </g>
    <g id="Connected.User.TransferringFunds">
      <rect fill="#F1F1F1" height="50" rx="12.5" ry="12.5" style="stroke:#181818;stroke-width:0.5;" width="138" x="1382" y="664.6094"/>
      <line style="stroke:#181818;stroke-width:0.5;" x1="1382" x2="1520" y1="692.2188" y2="692.2188"/>
      <text fill="#000000" font-family="sans-serif" font-size="14" lengthAdjust="spacing" textLength="118" x="1392" y="684.1426">TransferringFunds</text>
    </g>
    <g id="Connected.User.ViewingSettings">
      <rect fill="#F1F1F1" height="50" rx="12.5" ry="12.5" style="stroke:#181818;stroke-width:0.5;" width="119" x="938.5" y="536.6094"/>
      <line style="stroke:#181818;stroke-width:0.5;" x1="938.5" x2="1057.5" y1="564.2188" y2="564.2188"/>
      <text fill="#000000" font-family="sans-serif" font-size="14" lengthAdjust="spacing" textLength="99" x="948.5" y="556.1426">ViewingSettings</text>
    </g>
    <g id="Connected.User.UpdatingEmail">
      <rect fill="#F1F1F1" height="50" rx="12.5" ry="12.5" style="stroke:#181818;stroke-width:0.5;" width="110" x="829" y="664.6094"/>
      <line style="stroke:#181818;stroke-width:0.5;" x1="829" x2="939" y1="692.2188" y2="692.2188"/>
      <text fill="#000000" font-family="sans-serif" font-size="14" lengthAdjust="spacing" textLength="90" x="839" y="684.1426">UpdatingEmail</text>
    </g>
    <g id="Connected.User.UpdatingPassword">
      <rect fill="#F1F1F1" height="50" rx="12.5" ry="12.5" style="stroke:#181818;stroke-width:0.5;" width="137" x="1043.5" y="664.6094"/>
      <line style="stroke:#181818;stroke-width:0.5;" x1="1043.5" x2="1180.5" y1="692.2188" y2="692.2188"/>
      <text fill="#000000" font-family="sans-serif" font-size="14" lengthAdjust="spacing" textLength="117" x="1053.5" y="684.1426">UpdatingPassword</text>
    </g>
    <ellipse cx="228" cy="305.6094" fill="#222222" rx="10" ry="10" style="stroke:#222222;stroke-width:1.0;"/>
    <g id="Connected.Admin.ViewingDatabase">
      <rect fill="#F1F1F1" height="50" rx="12.5" ry="12.5" style="stroke:#181818;stroke-width:0.5;" width="129" x="163.5" y="408.6094"/>
      <line style="stroke:#181818;stroke-width:0.5;" x1="163.5" x2="292.5" y1="436.2188" y2="436.2188"/>
      <text fill="#000000" font-family="sans-serif" font-size="14" lengthAdjust="spacing" textLength="109" x="173.5" y="428.1426">ViewingDatabase</text>
    </g>
    <g id="Connected.Admin.ManagingUsers">
      <rect fill="#F1F1F1" height="50" rx="12.5" ry="12.5" style="stroke:#181818;stroke-width:0.5;" width="118" x="71" y="536.6094"/>
      <line style="stroke:#181818;stroke-width:0.5;" x1="71" x2="189" y1="564.2188" y2="564.2188"/>
      <text fill="#000000" font-family="sans-serif" font-size="14" lengthAdjust="spacing" textLength="98" x="81" y="556.1426">ManagingUsers</text>
    </g>
    <g id="Connected.Admin.ViewingTransactions">
      <rect fill="#F1F1F1" height="50" rx="12.5" ry="12.5" style="stroke:#181818;stroke-width:0.5;" width="150" x="224" y="536.6094"/>
      <line style="stroke:#181818;stroke-width:0.5;" x1="224" x2="374" y1="564.2188" y2="564.2188"/>
      <text fill="#000000" font-family="sans-serif" font-size="14" lengthAdjust="spacing" textLength="130" x="234" y="556.1426">ViewingTransactions</text>
    </g>
    <g id="Connected.Admin.ManagingTransactions">
      <rect fill="#F1F1F1" height="50" rx="12.5" ry="12.5" style="stroke:#181818;stroke-width:0.5;" width="164" x="190" y="664.6094"/>
      <line style="stroke:#181818;stroke-width:0.5;" x1="190" x2="354" y1="692.2188" y2="692.2188"/>
      <text fill="#000000" font-family="sans-serif" font-size="14" lengthAdjust="spacing" textLength="144" x="200" y="684.1426">ManagingTransactions</text>
    </g>
    <ellipse cx="2439" cy="561.6094" fill="#222222" rx="10" ry="10" style="stroke:#222222;stroke-width:1.0;"/>
    <g id="Disconnected">
      <rect fill="#F1F1F1" height="50" rx="12.5" ry="12.5" style="stroke:#181818;stroke-width:0.5;" width="106" x="2386" y="664.6094"/>
      <line style="stroke:#181818;stroke-width:0.5;" x1="2386" x2="2492" y1="692.2188" y2="692.2188"/>
      <text fill="#000000" font-family="sans-serif" font-size="14" lengthAdjust="spacing" textLength="86" x="2396" y="684.1426">Disconnected</text>
    </g>
    <g id="Connecting">
      <rect fill="#F1F1F1" height="50" rx="12.5" ry="12.5" style="stroke:#181818;stroke-width:0.5;" width="92" x="2562" y="850.6094"/>
      <line style="stroke:#181818;stroke-width:0.5;" x1="2562" x2="2654" y1="878.2188" y2="878.2188"/>
      <text fill="#000000" font-family="sans-serif" font-size="14" lengthAdjust="spacing" textLength="72" x="2572" y="870.1426">Connecting</text>
    </g>
    <g id="Disconnecting">
      <rect fill="#F1F1F1" height="50" rx="12.5" ry="12.5" style="stroke:#181818;stroke-width:0.5;" width="109" x="2453.5" y="280.6094"/>
      <line style="stroke:#181818;stroke-width:0.5;" x1="2453.5" x2="2562.5" y1="308.2188" y2="308.2188"/>
      <text fill="#000000" font-family="sans-serif" font-size="14" lengthAdjust="spacing" textLength="89" x="2463.5" y="300.1426">Disconnecting</text>
    </g>
    <g id="SendingRequest">
      <rect fill="#F1F1F1" height="50" rx="12.5" ry="12.5" style="stroke:#181818;stroke-width:0.5;" width="125" x="2017.5" y="280.6094"/>
      <line style="stroke:#181818;stroke-width:0.5;" x1="2017.5" x2="2142.5" y1="308.2188" y2="308.2188"/>
      <text fill="#000000" font-family="sans-serif" font-size="14" lengthAdjust="spacing" textLength="105" x="2027.5" y="300.1426">SendingRequest</text>
    </g>
    <g id="WaitingForResponse">
      <rect fill="#F1F1F1" height="50" rx="12.5" ry="12.5" style="stroke:#181818;stroke-width:0.5;" width="153" x="1985.5" y="536.6094"/>
      <line style="stroke:#181818;stroke-width:0.5;" x1="1985.5" x2="2138.5" y1="564.2188" y2="564.2188"/>
      <text fill="#000000" font-family="sans-serif" font-size="14" lengthAdjust="spacing" textLength="133" x="1995.5" y="556.1426">WaitingForResponse</text>
    </g>
    <ellipse cx="2439" cy="875.6094" fill="none" rx="11" ry="11" style="stroke:#222222;stroke-width:1.0;"/>
    <ellipse cx="2439" cy="875.6094" fill="#222222" rx="6" ry="6" style="stroke:#222222;stroke-width:1.0;"/>
    <g id="link_*start*_Disconnected">
      <path d="M2439,571.6694 C2439,590.8594 2439,630.1294 2439,658.3794 " fill="none" id="*start*-to-Disconnected" style="stroke:#181818;stroke-width:1.0;"/>
      <polygon fill="#181818" points="2439,664.3794,2443,655.3794,2439,659.3794,2435,655.3794,2439,664.3794" style="stroke:#181818;stroke-width:1.0;"/>
      <text fill="#000000" font-family="sans-serif" font-size="13" lengthAdjust="spacing" textLength="28" x="2440" y="631.1045">Start</text>
    </g>
    <g id="link_Disconnected_Connecting">
      <path d="M2448.97,715.1094 C2461.37,743.2394 2484.78,789.5094 2516,820.6094 C2529.12,833.6794 2540.7753,841.8831 2556.5053,850.5531 " fill="none" id="Disconnected-to-Connecting" style="stroke:#181818;stroke-width:1.0;"/>
      <polygon fill="#181818" points="2561.76,853.4494,2555.8088,845.6019,2557.3811,851.0358,2551.9471,852.6081,2561.76,853.4494" style="stroke:#181818;stroke-width:1.0;"/>
      <text fill="#000000" font-family="sans-serif" font-size="13" lengthAdjust="spacing" textLength="141" x="2517" y="817.1045">requestClientConnection</text>
    </g>
    <g id="link_Connecting_Connected">
      <path d="M2639.21,850.4994 C2648.22,841.9994 2657.18,831.7594 2663,820.6094 C2690.12,768.6594 2685,749.2094 2685,690.6094 C2685,304.6094 2685,304.6094 2685,304.6094 C2685,227.7994 2626.48,220.1294 2556,189.6094 C2494.755,163.0844 2345.8725,149.5869 2211.3788,142.7194 C2144.1319,139.2856 2080.4822,137.5094 2033.183,136.5909 C2009.5334,136.1317 1989.9714,135.887 1976.0912,135.7567 C1972.6211,135.7241 1969.5062,135.6987 1966.7712,135.6789 C1965.4038,135.669 1964.1313,135.6605 1962.957,135.6532 C1962.3698,135.6495 1967.8071,135.6805 1967.2694,135.6774 " fill="none" id="Connecting-to-Connected" style="stroke:#181818;stroke-width:1.0;"/>
      <polygon fill="#181818" points="1961.2694,135.6431,1970.2464,139.6945,1966.2694,135.6717,1970.2922,131.6946,1961.2694,135.6431" style="stroke:#181818;stroke-width:1.0;"/>
      <text fill="#000000" font-family="sans-serif" font-size="13" lengthAdjust="spacing" textLength="112" x="2686" y="503.1045">onConnectedSignal</text>
    </g>
    <g id="link_Connected_Disconnecting">
      <path d="M1961.5044,136.1559 C1961.7243,136.1705 1961.9481,136.1854 1962.1759,136.2005 C1963.9983,136.3218 1966.0739,136.4614 1968.3862,136.6192 C1977.6355,137.2507 1990.6723,138.1738 2006.4372,139.3795 C2037.9669,141.7909 2080.4087,145.3325 2125.2875,149.9306 C2215.045,159.1269 2314.55,172.5494 2356,189.6094 C2407.26,210.7094 2452.1969,249.2584 2480.1269,276.2684 " fill="none" id="Connected-to-Disconnecting" style="stroke:#181818;stroke-width:1.0;"/>
      <polygon fill="#181818" points="2484.44,280.4394,2480.7511,271.3075,2480.8458,276.9635,2475.1897,277.0582,2484.44,280.4394" style="stroke:#181818;stroke-width:1.0;"/>
      <text fill="#000000" font-family="sans-serif" font-size="13" lengthAdjust="spacing" textLength="158" x="2389" y="204.1045">requestClientDisconnection</text>
    </g>
    <g id="link_Disconnecting_Disconnected">
      <path d="M2509.86,331.0094 C2513.24,386.7694 2516.72,527.0294 2477,634.6094 C2473.07,645.2594 2470.0808,650.9251 2463.4908,659.7851 " fill="none" id="Disconnecting-to-Disconnected" style="stroke:#181818;stroke-width:1.0;"/>
      <polygon fill="#181818" points="2459.91,664.5994,2468.4908,659.7651,2462.894,660.5875,2462.0717,654.9907,2459.91,664.5994" style="stroke:#181818;stroke-width:1.0;"/>
      <text fill="#000000" font-family="sans-serif" font-size="13" lengthAdjust="spacing" textLength="129" x="2508" y="503.1045">onDisconnectedSignal</text>
    </g>
    <g id="link_Connected_SendingRequest">
      <path d="M1961.257,146.5952 C1962.8122,148.6646 1964.5575,150.9871 1966.4673,153.5284 C1974.1066,163.6938 1984.3769,177.3606 1995.6313,192.3369 C2018.14,222.2894 2040.98,252.6831 2058.185,275.5731 " fill="none" id="Connected-to-SendingRequest" style="stroke:#181818;stroke-width:1.0;"/>
      <polygon fill="#181818" points="2061.79,280.3694,2059.5799,270.7717,2058.7858,276.3725,2053.185,275.5784,2061.79,280.3694" style="stroke:#181818;stroke-width:1.0;"/>
      <text fill="#000000" font-family="sans-serif" font-size="13" lengthAdjust="spacing" textLength="76" x="2006" y="204.1045">sendRequest</text>
    </g>
    <g id="link_SendingRequest_WaitingForResponse">
      <path d="M2078.27,330.9594 C2074.83,379.5094 2067.5846,481.8544 2064.1446,530.3444 " fill="none" id="SendingRequest-to-WaitingForResponse" style="stroke:#181818;stroke-width:1.0;"/>
      <polygon fill="#181818" points="2063.72,536.3294,2068.3469,527.635,2064.0738,531.3419,2060.3669,527.0689,2063.72,536.3294" style="stroke:#181818;stroke-width:1.0;"/>
      <text fill="#000000" font-family="sans-serif" font-size="13" lengthAdjust="spacing" textLength="75" x="2073" y="439.1045">RequestSent</text>
    </g>
    <g id="link_WaitingForResponse_Connected">
      <path d="M2094.5,536.4794 C2116.62,517.9494 2144.13,490.2094 2157,458.6094 C2158.21,455.6494 2165.75,223.9994 2160,215.6094 C2132.55,175.5694 2081.975,155.5644 2037.6888,145.5719 C2015.5456,140.5756 1994.9747,138.0825 1979.6527,136.8397 C1971.9916,136.2183 1971.6395,136.1097 1967.0625,135.9569 " fill="none" id="WaitingForResponse-to-Connected" style="stroke:#181818;stroke-width:1.0;"/>
      <polygon fill="#181818" points="1961.0659,135.7566,1969.9274,140.0548,1966.0631,135.9235,1970.1944,132.0592,1961.0659,135.7566" style="stroke:#181818;stroke-width:1.0;"/>
      <text fill="#000000" font-family="sans-serif" font-size="13" lengthAdjust="spacing" textLength="109" x="2161" y="375.1045">onResponseReady</text>
    </g>
    <g id="link_WaitingForResponse_Disconnected">
      <path d="M2092.31,586.7594 C2113.69,602.6394 2143.66,622.6194 2173,634.6094 C2243.45,663.3894 2324.9201,676.6573 2379.8601,683.0373 " fill="none" id="WaitingForResponse-to-Disconnected" style="stroke:#181818;stroke-width:1.0;"/>
      <polygon fill="#181818" points="2385.82,683.7294,2377.3415,678.7179,2380.8534,683.1526,2376.4187,686.6645,2385.82,683.7294" style="stroke:#181818;stroke-width:1.0;"/>
      <text fill="#000000" font-family="sans-serif" font-size="13" lengthAdjust="spacing" textLength="129" x="2174" y="631.1045">onDisconnectedSignal</text>
    </g>
    <g id="link_Connected_Disconnected">
      <path d="M1961.4659,135.4126 C1961.7033,135.409 1961.9454,135.4055 1962.1921,135.4021 C1962.6854,135.3953 1963.1973,135.3888 1963.7272,135.3826 C1965.8467,135.3582 1968.2557,135.3403 1970.9314,135.3353 C1981.6346,135.3154 1996.6077,135.5024 2014.4122,136.3023 C2050.0213,137.9022 2096.9563,141.9537 2143.71,151.7056 C2237.2175,171.2094 2330,213.5144 2330,304.6094 C2330,304.6094 2330,304.6094 2330,562.6094 C2330,606.2894 2363.0338,638.7973 2394.1438,660.9673 " fill="none" id="Connected-to-Disconnected" style="stroke:#181818;stroke-width:1.0;"/>
      <polygon fill="#181818" points="2399.03,664.4494,2394.0221,655.9688,2394.9582,661.5476,2389.3793,662.4837,2399.03,664.4494" style="stroke:#181818;stroke-width:1.0;"/>
      <text fill="#000000" font-family="sans-serif" font-size="13" lengthAdjust="spacing" textLength="129" x="2331" y="439.1045">onDisconnectedSignal</text>
    </g>
    <g id="link_Disconnected_*end*">
      <path d="M2439,714.6594 C2439,755.3794 2439,830.2194 2439,858.5294 " fill="none" id="Disconnected-to-*end*" style="stroke:#181818;stroke-width:1.0;"/>
      <polygon fill="#181818" points="2439,864.5294,2443,855.5294,2439,859.5294,2435,855.5294,2439,864.5294" style="stroke:#181818;stroke-width:1.0;"/>
      <text fill="#000000" font-family="sans-serif" font-size="13" lengthAdjust="spacing" textLength="23" x="2440" y="817.1045">Exit</text>
    </g>
    <g id="link_*start*Connected_Idle">
      <path d="M1736.77,144.2194 C1747.7,169.1794 1777.2533,236.6832 1794.0333,275.0032 " fill="none" id="*start*Connected-to-Idle" style="stroke:#181818;stroke-width:1.0;"/>
      <polygon fill="#181818" points="1796.44,280.4994,1796.494,270.6507,1794.4344,275.9192,1789.1658,273.8596,1796.44,280.4994" style="stroke:#181818;stroke-width:1.0;"/>
    </g>
    <g id="link_Idle_HandlingRequest">
      <path d="M1808.31,330.8694 C1808.35,345.1194 1807.12,363.2794 1802,378.6094 C1798.5,389.0994 1795.8597,394.5986 1789.7797,403.4786 " fill="none" id="Idle-to-HandlingRequest" style="stroke:#181818;stroke-width:1.0;"/>
      <polygon fill="#181818" points="1786.39,408.4294,1794.7751,403.2631,1789.2148,404.3038,1788.1741,398.7434,1786.39,408.4294" style="stroke:#181818;stroke-width:1.0;"/>
      <text fill="#000000" font-family="sans-serif" font-size="13" lengthAdjust="spacing" textLength="86" x="1808" y="375.1045">handleRequest</text>
    </g>
    <g id="link_HandlingRequest_WaitingForResponse">
      <path d="M1792.68,458.7494 C1810.6,474.4094 1835.74,494.1594 1861,506.6094 C1900.05,525.8594 1941.0089,537.6758 1979.6389,546.1358 " fill="none" id="HandlingRequest-to-WaitingForResponse" style="stroke:#181818;stroke-width:1.0;"/>
      <polygon fill="#181818" points="1985.5,547.4194,1977.5641,541.5866,1980.6158,546.3497,1975.8526,549.4014,1985.5,547.4194" style="stroke:#181818;stroke-width:1.0;"/>
      <text fill="#000000" font-family="sans-serif" font-size="13" lengthAdjust="spacing" textLength="80" x="1862" y="503.1045">makeRequest</text>
    </g>
    <g id="link_WaitingForResponse_HandlingResponse">
      <path d="M2046.32,536.4094 C2025.18,502.5594 1987.99,438.4794 1969,378.6094 C1943.35,297.7294 1989.6,259.8494 1942,189.6094 C1933.66,177.2994 1926.6443,170.554 1913.8443,162.814 " fill="none" id="WaitingForResponse-to-HandlingResponse" style="stroke:#181818;stroke-width:1.0;"/>
      <polygon fill="#181818" points="1908.71,159.7094,1914.3417,167.7892,1912.9886,162.2966,1918.4812,160.9435,1908.71,159.7094" style="stroke:#181818;stroke-width:1.0;"/>
      <text fill="#000000" font-family="sans-serif" font-size="13" lengthAdjust="spacing" textLength="96" x="1970" y="375.1045">handleResponse</text>
    </g>
    <g id="link_HandlingResponse_Idle">
      <path d="M1830.5,159.7494 C1824.89,168.7094 1819.29,179.2194 1816,189.6094 C1806.45,219.7794 1805.136,250.5107 1805.626,274.2207 " fill="none" id="HandlingResponse-to-Idle" style="stroke:#181818;stroke-width:1.0;"/>
      <polygon fill="#181818" points="1805.75,280.2194,1809.5632,271.1386,1805.6467,275.2204,1801.5649,271.3039,1805.75,280.2194" style="stroke:#181818;stroke-width:1.0;"/>
      <text fill="#000000" font-family="sans-serif" font-size="13" lengthAdjust="spacing" textLength="120" x="1817" y="204.1045">ResponseProcessed</text>
    </g>
    <g id="link_*start*User_ViewingHome">
      <path d="M1163,315.6694 C1163,334.8594 1163,374.1294 1163,402.3794 " fill="none" id="*start*User-to-ViewingHome" style="stroke:#181818;stroke-width:1.0;"/>
      <polygon fill="#181818" points="1163,408.3794,1167,399.3794,1163,403.3794,1159,399.3794,1163,408.3794" style="stroke:#181818;stroke-width:1.0;"/>
    </g>
    <g id="link_ViewingHome_ViewingTransfer">
      <path d="M1186.3,458.8794 C1201.17,473.6494 1221.3,492.3394 1241,506.6094 C1255.99,517.4594 1268.0996,524.9018 1283.9796,533.5418 " fill="none" id="ViewingHome-to-ViewingTransfer" style="stroke:#181818;stroke-width:1.0;"/>
      <polygon fill="#181818" points="1289.25,536.4094,1283.2561,528.5945,1284.858,534.0198,1279.4327,535.6217,1289.25,536.4094" style="stroke:#181818;stroke-width:1.0;"/>
      <text fill="#000000" font-family="sans-serif" font-size="13" lengthAdjust="spacing" textLength="95" x="1242" y="503.1045">ViewTransferTab</text>
    </g>
    <g id="link_ViewingTransfer_TransferringFunds">
      <path d="M1372.24,586.7394 C1383.37,595.4494 1395.33,605.8194 1405,616.6094 C1418.06,631.1894 1426.9155,644.6686 1435.2955,659.3486 " fill="none" id="ViewingTransfer-to-TransferringFunds" style="stroke:#181818;stroke-width:1.0;"/>
      <polygon fill="#181818" points="1438.27,664.5594,1437.282,654.7602,1435.7912,660.2171,1430.3343,658.7262,1438.27,664.5594" style="stroke:#181818;stroke-width:1.0;"/>
      <text fill="#000000" font-family="sans-serif" font-size="13" lengthAdjust="spacing" textLength="82" x="1420" y="631.1045">TransferFunds</text>
    </g>
    <g id="link_TransferringFunds_WaitingForResponse">
      <path d="M1520.07,684.8594 C1604.6,679.1294 1751.58,665.3894 1874,634.6094 C1920.95,622.7994 1966.6091,605.0722 2003.6991,589.1022 " fill="none" id="TransferringFunds-to-WaitingForResponse" style="stroke:#181818;stroke-width:1.0;"/>
      <polygon fill="#181818" points="2009.21,586.7294,1999.3618,586.6147,2004.6176,588.7067,2002.5256,593.9625,2009.21,586.7294" style="stroke:#181818;stroke-width:1.0;"/>
      <text fill="#000000" font-family="sans-serif" font-size="13" lengthAdjust="spacing" textLength="122" x="1933" y="631.1045">sendTransferRequest</text>
    </g>
    <g id="link_ViewingHome_ViewingSettings">
      <path d="M1131.19,458.8994 C1101.87,481.2894 1063.3986,510.6679 1034.2086,532.9579 " fill="none" id="ViewingHome-to-ViewingSettings" style="stroke:#181818;stroke-width:1.0;"/>
      <polygon fill="#181818" points="1029.44,536.5994,1039.0206,534.3163,1033.4139,533.5649,1034.1654,527.9581,1029.44,536.5994" style="stroke:#181818;stroke-width:1.0;"/>
      <text fill="#000000" font-family="sans-serif" font-size="13" lengthAdjust="spacing" textLength="97" x="1092" y="503.1045">ViewSettingsTab</text>
    </g>
    <g id="link_ViewingSettings_UpdatingEmail">
      <path d="M938.41,567.5794 C874.55,574.2794 779.31,588.7494 757,616.6094 C732.44,647.2794 778.3527,665.7703 823.0027,676.7203 " fill="none" id="ViewingSettings-to-UpdatingEmail" style="stroke:#181818;stroke-width:1.0;"/>
      <polygon fill="#181818" points="828.83,678.1494,821.0417,672.1208,823.9739,676.9585,819.1363,679.8906,828.83,678.1494" style="stroke:#181818;stroke-width:1.0;"/>
      <text fill="#000000" font-family="sans-serif" font-size="13" lengthAdjust="spacing" textLength="117" x="758" y="631.1045">UpdateEmailClicked</text>
    </g>
    <g id="link_ViewingSettings_UpdatingEmail">
      <path d="M951.37,586.7994 C938.71,594.9894 925.81,605.0394 916,616.6094 C904.23,630.4894 898.0142,643.7065 892.8642,658.6565 " fill="none" id="ViewingSettings-to-UpdatingEmail-1" style="stroke:#181818;stroke-width:1.0;"/>
      <polygon fill="#181818" points="890.91,664.3294,897.6232,657.1229,892.5385,659.602,890.0594,654.5173,890.91,664.3294" style="stroke:#181818;stroke-width:1.0;"/>
      <text fill="#000000" font-family="sans-serif" font-size="13" lengthAdjust="spacing" textLength="117" x="917" y="631.1045">UpdateEmailClicked</text>
    </g>
    <g id="link_ViewingSettings_UpdatingPassword">
      <path d="M1057.77,568.7394 C1117.05,576.1994 1201.89,591.0794 1222,616.6094 C1240.08,639.5594 1218.1833,655.4139 1186.1633,667.6739 " fill="none" id="ViewingSettings-to-UpdatingPassword" style="stroke:#181818;stroke-width:1.0;"/>
      <polygon fill="#181818" points="1180.56,669.8194,1190.3953,670.3368,1185.2294,668.0315,1187.5347,662.8657,1180.56,669.8194" style="stroke:#181818;stroke-width:1.0;"/>
      <text fill="#000000" font-family="sans-serif" font-size="13" lengthAdjust="spacing" textLength="141" x="1229" y="631.1045">UpdatePasswordClicked</text>
    </g>
    <g id="link_ViewingSettings_UpdatingPassword">
      <path d="M1019.98,586.8994 C1040.17,609.2194 1065.8942,637.6504 1086.0642,659.9404 " fill="none" id="ViewingSettings-to-UpdatingPassword-1" style="stroke:#181818;stroke-width:1.0;"/>
      <polygon fill="#181818" points="1090.09,664.3894,1087.0173,655.0321,1086.7352,660.6819,1081.0854,660.3998,1090.09,664.3894" style="stroke:#181818;stroke-width:1.0;"/>
      <text fill="#000000" font-family="sans-serif" font-size="13" lengthAdjust="spacing" textLength="141" x="1063" y="631.1045">UpdatePasswordClicked</text>
    </g>
    <g id="link_*start*Admin_ViewingDatabase">
      <path d="M228,315.6694 C228,334.8594 228,374.1294 228,402.3794 " fill="none" id="*start*Admin-to-ViewingDatabase" style="stroke:#181818;stroke-width:1.0;"/>
      <polygon fill="#181818" points="228,408.3794,232,399.3794,228,403.3794,224,399.3794,228,408.3794" style="stroke:#181818;stroke-width:1.0;"/>
    </g>
    <g id="link_ViewingDatabase_ManagingUsers">
      <path d="M163.43,457.4094 C150.13,465.1994 137.81,475.3994 130,488.6094 C121.61,502.8194 120.9794,515.5758 123.1994,530.3658 " fill="none" id="ViewingDatabase-to-ManagingUsers" style="stroke:#181818;stroke-width:1.0;"/>
      <polygon fill="#181818" points="124.09,536.2994,126.7097,526.8053,123.3478,531.3548,118.7984,527.9928,124.09,536.2994" style="stroke:#181818;stroke-width:1.0;"/>
      <text fill="#000000" font-family="sans-serif" font-size="13" lengthAdjust="spacing" textLength="80" x="131" y="503.1045">ManageUsers</text>
    </g>
    <g id="link_ManagingUsers_WaitingForResponse">
      <path d="M189.03,540.9994 C194.72,539.3694 200.45,537.8694 206,536.6094 C333.18,507.6594 366.84,507.0694 497,498.6094 C791.58,479.4594 1706.2634,537.7087 1979.0834,555.9687 " fill="none" id="ManagingUsers-to-WaitingForResponse" style="stroke:#181818;stroke-width:1.0;"/>
      <polygon fill="#181818" points="1985.07,556.3694,1976.3572,551.7773,1980.0812,556.0355,1975.823,559.7594,1985.07,556.3694" style="stroke:#181818;stroke-width:1.0;"/>
      <text fill="#000000" font-family="sans-serif" font-size="13" lengthAdjust="spacing" textLength="178" x="498" y="503.1045">sendUserManagementRequest</text>
    </g>
    <g id="link_ViewingDatabase_ViewingTransactions">
      <path d="M221.24,458.8894 C218.53,473.4894 217.57,491.9994 225,506.6094 C231.05,518.5194 236.2706,524.869 247.0406,532.809 " fill="none" id="ViewingDatabase-to-ViewingTransactions" style="stroke:#181818;stroke-width:1.0;"/>
      <polygon fill="#181818" points="251.87,536.3694,246.9995,527.8091,247.8455,533.4024,242.2522,534.2484,251.87,536.3694" style="stroke:#181818;stroke-width:1.0;"/>
      <text fill="#000000" font-family="sans-serif" font-size="13" lengthAdjust="spacing" textLength="123" x="226" y="503.1045">ViewTransactionsTab</text>
    </g>
    <g id="link_ViewingTransactions_ManagingTransactions">
      <path d="M293.79,586.8994 C289.01,609.2194 283.2281,636.2328 278.4481,658.5228 " fill="none" id="ViewingTransactions-to-ManagingTransactions" style="stroke:#181818;stroke-width:1.0;"/>
      <polygon fill="#181818" points="277.19,664.3894,282.9882,656.4282,278.2384,659.5005,275.166,654.7507,277.19,664.3894" style="stroke:#181818;stroke-width:1.0;"/>
      <text fill="#000000" font-family="sans-serif" font-size="13" lengthAdjust="spacing" textLength="120" x="289" y="631.1045">ManageTransactions</text>
    </g>
    <g id="link_ManagingTransactions_WaitingForResponse">
      <path d="M354.13,683.6294 C441.94,678.4194 585.28,670.2294 709,664.6094 C1079.97,647.7594 1174.05,666.8794 1544,634.6094 C1701.61,620.8594 1878.7309,593.4515 1979.5609,576.7215 " fill="none" id="ManagingTransactions-to-WaitingForResponse" style="stroke:#181818;stroke-width:1.0;"/>
      <polygon fill="#181818" points="1985.48,575.7394,1975.9466,573.2665,1980.5474,576.5578,1977.2561,581.1586,1985.48,575.7394" style="stroke:#181818;stroke-width:1.0;"/>
      <text fill="#000000" font-family="sans-serif" font-size="13" lengthAdjust="spacing" textLength="143" x="1703" y="631.1045">sendTransactionRequest</text>
    </g>
    <g id="link_ViewingDatabase_ViewingSettings">
      <path d="M286.02,458.6394 C307.5,467.7494 331.98,478.3994 354,488.6094 C370.23,496.1394 372.79,501.7294 390,506.6094 C491.96,535.4994 799.706,551.9409 932.086,557.8709 " fill="none" id="ViewingDatabase-to-ViewingSettings" style="stroke:#181818;stroke-width:1.0;"/>
      <polygon fill="#181818" points="938.08,558.1394,929.268,553.7406,933.085,557.9156,928.91,561.7326,938.08,558.1394" style="stroke:#181818;stroke-width:1.0;"/>
      <text fill="#000000" font-family="sans-serif" font-size="13" lengthAdjust="spacing" textLength="97" x="391" y="503.1045">ViewSettingsTab</text>
    </g>
    <g id="link_User_HandlingRequest">
      <path d="M1560.1101,334.6575 C1561.4769,335.9199 1562.8407,337.0969 1564.2021,338.1939 C1566.9248,340.3878 1569.6378,342.2612 1572.3458,343.8557 C1577.7618,347.0447 1583.1577,349.1179 1588.5709,350.407 C1599.3975,352.9853 1610.2937,352.4275 1621.56,351.3881 C1644.0925,349.3094 1668.105,345.3044 1696,360.6094 C1717.39,372.3494 1732.7142,387.8964 1745.6942,403.9264 " fill="none" id="User-to-HandlingRequest" style="stroke:#181818;stroke-width:1.0;"/>
      <polygon fill="#181818" points="1749.47,408.5894,1746.915,399.0777,1746.3235,404.7035,1740.6977,404.1121,1749.47,408.5894" style="stroke:#181818;stroke-width:1.0;"/>
      <text fill="#000000" font-family="sans-serif" font-size="13" lengthAdjust="spacing" textLength="64" x="1722" y="375.1045">UserAction</text>
    </g>
    <g id="link_Admin_HandlingRequest">
      <path d="M406.0967,307.2721 C406.4095,307.2978 406.7311,307.3241 407.0615,307.3512 C412.3473,307.7849 419.8775,308.4039 429.4697,309.1954 C448.6541,310.7785 476.0863,313.0517 510.3064,315.9122 C578.7466,321.6331 674.3381,329.7031 785.4012,339.2994 C1007.5275,358.4919 1291.54,383.7894 1544,408.6094 C1597.48,413.8694 1652.1364,419.7691 1696.6664,424.6991 " fill="none" id="Admin-to-HandlingRequest" style="stroke:#181818;stroke-width:1.0;"/>
      <polygon fill="#181818" points="1702.63,425.3594,1694.1248,420.3933,1697.6604,424.8092,1693.2445,428.3447,1702.63,425.3594" style="stroke:#181818;stroke-width:1.0;"/>
      <text fill="#000000" font-family="sans-serif" font-size="13" lengthAdjust="spacing" textLength="74" x="1199" y="375.1045">AdminAction</text>
    </g>
  </g>
</svg>
